<?xml version="1.0" encoding="UTF-8"?>
<!DOCTYPE svg PUBLIC "-//W3C//DTD SVG 1.1//EN" "http://www.w3.org/Graphics/SVG/1.1/DTD/svg11.dtd">
<svg version="1.1" xmlns="http://www.w3.org/2000/svg" xmlns:xlink="http://www.w3.org/1999/xlink" x="0" y="0" width="1640" height="1640" viewBox="0, 0, 1640, 1640">
  <g id="Layer_2" display="none">
    <path d="M0,820 L0,0 L820,0 L1640,0 L1640,820 L1640,1640 L820,1640 L0,1640 L0,820 z" fill="#D3D3D3"/>
  </g>
  <g id="Layer_1">
    <path d="M0.281,1536.719 L0.281,1432.719 L4.281,1430.719 C7.281,1428.719 9.281,1428.719 11.281,1428.719 C14.281,1429.719 18.281,1426.719 17.281,1424.719 C17.281,1422.719 17.281,1421.719 19.281,1420.719 C21.281,1418.719 21.281,1418.719 20.281,1418.719 C18.281,1418.719 18.281,1416.719 21.281,1415.719 C24.281,1415.719 29.281,1413.719 34.281,1410.719 C36.281,1409.719 41.281,1407.719 45.281,1406.719 C49.281,1405.719 54.281,1402.719 57.281,1399.719 C62.281,1395.719 69.281,1389.719 78.281,1384.719 C82.281,1381.719 82.281,1380.719 80.281,1374.719 C78.281,1366.719 78.281,1353.719 79.281,1351.719 C80.281,1350.719 82.281,1350.719 83.281,1350.719 C86.281,1350.719 98.281,1341.719 104.281,1336.719 C107.281,1333.719 112.281,1327.719 117.281,1322.719 C121.281,1316.719 126.281,1310.719 128.281,1308.719 C135.281,1300.719 139.281,1289.719 144.281,1273.719 C148.281,1256.719 148.281,1252.719 146.281,1254.719 C146.281,1255.719 144.281,1256.719 142.281,1256.719 C140.281,1256.719 139.281,1256.719 139.281,1259.719 C138.281,1261.719 138.281,1264.719 138.281,1265.719 C138.281,1266.719 136.281,1269.719 135.281,1271.719 C133.281,1272.719 132.281,1275.719 132.281,1275.719 C131.281,1276.719 125.281,1282.719 124.281,1282.719 C123.281,1282.719 123.281,1281.719 123.281,1279.719 C123.281,1277.719 122.281,1277.719 121.281,1280.719 C119.281,1281.719 119.281,1283.719 119.281,1283.719 C119.281,1285.719 107.281,1297.719 100.281,1302.719 C92.281,1308.719 81.281,1314.719 77.281,1314.719 C75.281,1314.719 73.281,1314.719 71.281,1315.719 C69.281,1316.719 66.281,1318.719 65.281,1318.719 C63.281,1319.719 61.281,1320.719 59.281,1321.719 C57.281,1322.719 56.281,1323.719 56.281,1323.719 C56.281,1323.719 55.281,1326.719 55.281,1329.719 L54.281,1334.719 L58.281,1335.719 C60.281,1336.719 61.281,1337.719 61.281,1338.719 C61.281,1341.719 63.281,1342.719 72.281,1341.719 C79.281,1340.719 82.281,1340.719 85.281,1338.719 C90.281,1334.719 91.281,1336.719 86.281,1340.719 C81.281,1344.719 76.281,1349.719 71.281,1354.719 C70.281,1356.719 69.281,1357.719 67.281,1356.719 C65.281,1356.719 60.281,1355.719 54.281,1355.719 L45.281,1355.719 L28.281,1340.719 C20.281,1332.719 11.281,1323.719 9.281,1320.719 C7.281,1317.719 5.281,1313.719 3.281,1312.719 L0.281,1308.719 L0.281,1279.719 C0.281,1263.719 0.281,1250.719 0.281,1250.719 C1.281,1250.719 3.281,1251.719 5.281,1252.719 C16.281,1260.719 23.281,1262.719 26.281,1258.719 C26.281,1257.719 27.281,1257.719 29.281,1257.719 C32.281,1258.719 32.281,1257.719 33.281,1255.719 C33.281,1254.719 33.281,1252.719 33.281,1251.719 C33.281,1251.719 33.281,1250.719 34.281,1250.719 C35.281,1250.719 36.281,1248.719 36.281,1247.719 C36.281,1245.719 36.281,1244.719 37.281,1244.719 C39.281,1244.719 39.281,1243.719 39.281,1242.719 C38.281,1237.719 50.281,1211.719 67.281,1178.719 C71.281,1171.719 74.281,1165.719 74.281,1165.719 C75.281,1164.719 76.281,1162.719 77.281,1160.719 C80.281,1156.719 90.281,1138.719 93.281,1132.719 C95.281,1129.719 96.281,1126.719 97.281,1125.719 C98.281,1123.719 100.281,1118.719 103.281,1114.719 C106.281,1108.719 110.281,1102.719 115.281,1095.719 C120.281,1090.719 125.281,1083.719 126.281,1082.719 C128.281,1080.719 131.281,1076.719 133.281,1075.719 C136.281,1071.719 137.281,1071.719 144.281,1071.719 C154.281,1071.719 158.281,1068.719 174.281,1053.719 C183.281,1045.719 188.281,1041.719 189.281,1041.719 C190.281,1041.719 192.281,1040.719 193.281,1040.719 C194.281,1039.719 197.281,1038.719 199.281,1037.719 C200.281,1036.719 204.281,1034.719 206.281,1032.719 C208.281,1030.719 210.281,1029.719 211.281,1029.719 C211.281,1029.719 214.281,1027.719 217.281,1025.719 C220.281,1023.719 225.281,1021.719 228.281,1019.719 C233.281,1017.719 234.281,1017.719 237.281,1018.719 C239.281,1019.719 239.281,1019.719 239.281,1020.719 C237.281,1021.719 238.281,1022.719 241.281,1022.719 C245.281,1023.719 245.281,1022.719 246.281,1018.719 C247.281,1015.719 246.281,1015.719 242.281,1013.719 C240.281,1012.719 238.281,1010.719 237.281,1008.719 C236.281,1007.719 233.281,1004.719 231.281,1003.719 C226.281,1001.719 225.281,1001.719 218.281,1005.719 C215.281,1006.719 209.281,1009.719 205.281,1012.719 C198.281,1016.719 197.281,1016.719 196.281,1014.719 C195.281,1013.719 194.281,1011.719 194.281,1010.719 C195.281,1008.719 191.281,1003.719 188.281,1004.719 C187.281,1004.719 186.281,1004.719 186.281,1004.719 C184.281,1003.719 185.281,1000.719 187.281,1000.719 C189.281,1000.719 189.281,998.719 188.281,997.719 C187.281,997.719 187.281,994.719 187.281,991.719 C187.281,988.719 187.281,986.719 188.281,988.719 C188.281,988.719 188.281,989.719 188.281,988.719 C188.281,987.719 189.281,986.719 191.281,986.719 C192.281,986.719 194.281,984.719 195.281,983.719 C197.281,982.719 201.281,978.719 204.281,975.719 C210.281,970.719 210.281,970.719 210.281,965.719 C210.281,962.719 210.281,957.719 210.281,954.719 C211.281,940.719 210.281,895.719 209.281,892.719 C209.281,890.719 208.281,884.719 208.281,879.719 C208.281,874.719 207.281,867.719 206.281,863.719 C206.281,859.719 205.281,854.719 206.281,851.719 C206.281,845.719 204.281,840.719 202.281,837.719 C200.281,836.719 198.281,829.719 199.281,830.719 C199.281,830.719 201.281,830.719 202.281,831.719 C204.281,832.719 204.281,832.719 203.281,828.719 C203.281,824.719 201.281,822.719 201.281,824.719 C200.281,827.719 199.281,824.719 199.281,819.719 C200.281,814.719 200.281,813.719 198.281,812.719 C196.281,811.719 196.281,811.719 198.281,807.719 C199.281,805.719 200.281,803.719 200.281,802.719 C200.281,802.719 200.281,800.719 201.281,798.719 C203.281,796.719 204.281,793.719 204.281,792.719 C204.281,790.719 204.281,789.719 206.281,790.719 C207.281,790.719 208.281,791.719 209.281,792.719 C210.281,794.719 210.281,792.719 209.281,787.719 C208.281,782.719 208.281,782.719 209.281,781.719 C211.281,780.719 218.281,779.719 223.281,779.719 C227.281,779.719 236.281,773.719 238.281,769.719 C238.281,767.719 238.281,766.719 237.281,765.719 C236.281,764.719 236.281,761.719 235.281,759.719 L235.281,754.719 L242.281,754.719 C246.281,755.719 251.281,755.719 253.281,755.719 C255.281,756.719 262.281,756.719 267.281,755.719 C278.281,755.719 278.281,755.719 283.281,758.719 C286.281,759.719 289.281,761.719 289.281,761.719 C292.281,763.719 292.281,765.719 290.281,764.719 C289.281,764.719 288.281,764.719 289.281,765.719 C289.281,765.719 290.281,766.719 291.281,766.719 C292.281,766.719 295.281,768.719 298.281,771.719 C308.281,782.719 313.281,786.719 323.281,790.719 C327.281,792.719 329.281,792.719 331.281,791.719 C332.281,791.719 333.281,791.719 334.281,793.719 C335.281,794.719 337.281,796.719 339.281,797.719 C343.281,800.719 344.281,805.719 345.281,813.719 C345.281,816.719 346.281,820.719 349.281,826.719 C351.281,831.719 353.281,835.719 353.281,836.719 C352.281,836.719 350.281,837.719 347.281,838.719 C344.281,840.719 340.281,842.719 338.281,843.719 C336.281,844.719 335.281,844.719 334.281,843.719 C331.281,841.719 327.281,836.719 327.281,835.719 C326.281,834.719 322.281,836.719 321.281,838.719 C321.281,838.719 320.281,839.719 319.281,839.719 C317.281,839.719 316.281,840.719 315.281,840.719 C315.281,841.719 313.281,842.719 313.281,842.719 C312.281,842.719 308.281,843.719 305.281,844.719 C302.281,845.719 298.281,846.719 297.281,846.719 C295.281,846.719 293.281,848.719 291.281,850.719 C289.281,852.719 289.281,854.719 289.281,858.719 C289.281,862.719 287.281,865.719 281.281,878.719 C272.281,897.719 266.281,914.719 266.281,922.719 C267.281,934.719 264.281,957.719 263.281,961.719 C257.281,972.719 254.281,981.719 253.281,985.719 C253.281,987.719 252.281,995.719 252.281,1002.719 C252.281,1013.719 252.281,1015.719 253.281,1015.719 C254.281,1016.719 255.281,1015.719 255.281,1015.719 C255.281,1014.719 256.281,1014.719 257.281,1014.719 C257.281,1014.719 260.281,1012.719 262.281,1009.719 C266.281,1005.719 267.281,1005.719 265.281,1009.719 C263.281,1013.719 264.281,1013.719 267.281,1011.719 C269.281,1009.719 271.281,1009.719 273.281,1009.719 C275.281,1009.719 276.281,1007.719 278.281,1005.719 C281.281,1000.719 283.281,999.719 286.281,1000.719 C288.281,1000.719 290.281,1000.719 291.281,999.719 C295.281,995.719 298.281,994.719 305.281,992.719 C310.281,992.719 313.281,992.719 314.281,992.719 C316.281,993.719 317.281,993.719 324.281,986.719 C332.281,978.719 336.281,971.719 338.281,965.719 C339.281,962.719 340.281,960.719 341.281,959.719 C341.281,959.719 342.281,957.719 342.281,957.719 C342.281,956.719 343.281,952.719 345.281,947.719 C349.281,941.719 350.281,938.719 353.281,936.719 C358.281,934.719 358.281,933.719 355.281,932.719 C354.281,931.719 353.281,931.719 354.281,929.719 C355.281,924.719 360.281,915.719 361.281,915.719 C362.281,915.719 363.281,913.719 363.281,912.719 C363.281,910.719 363.281,908.719 365.281,906.719 C366.281,903.719 366.281,902.719 365.281,898.719 C365.281,896.719 363.281,894.719 362.281,893.719 C361.281,893.719 360.281,891.719 359.281,889.719 C357.281,885.719 357.281,885.719 360.281,883.719 C362.281,881.719 363.281,879.719 362.281,878.719 C362.281,877.719 362.281,876.719 363.281,876.719 C364.281,876.719 365.281,876.719 366.281,876.719 C367.281,876.719 368.281,876.719 369.281,876.719 C371.281,876.719 374.281,873.719 377.281,870.719 C380.281,866.719 382.281,865.719 383.281,865.719 C385.281,867.719 406.281,867.719 409.281,865.719 C412.281,864.719 414.281,862.719 412.281,862.719 C411.281,861.719 410.281,860.719 409.281,858.719 C407.281,856.719 407.281,855.719 409.281,852.719 C414.281,844.719 412.281,835.719 406.281,835.719 C403.281,834.719 401.281,830.719 401.281,826.719 C401.281,825.719 400.281,823.719 399.281,822.719 C398.281,821.719 397.281,819.719 397.281,818.719 C396.281,816.719 397.281,816.719 399.281,816.719 L402.281,817.719 L399.281,810.719 C396.281,802.719 393.281,796.719 391.281,795.719 C390.281,794.719 390.281,792.719 390.281,791.719 C389.281,790.719 389.281,789.719 388.281,789.719 C388.281,789.719 388.281,787.719 388.281,786.719 C389.281,784.719 383.281,778.719 381.281,778.719 C379.281,779.719 379.281,779.719 380.281,777.719 C381.281,776.719 381.281,775.719 380.281,774.719 C378.281,772.719 377.281,771.719 377.281,770.719 C377.281,769.719 374.281,766.719 372.281,765.719 C361.281,756.719 359.281,754.719 363.281,753.719 C366.281,753.719 372.281,759.719 375.281,764.719 C376.281,766.719 377.281,768.719 378.281,768.719 C378.281,768.719 380.281,768.719 381.281,769.719 C383.281,771.719 383.281,771.719 381.281,769.719 C380.281,767.719 379.281,765.719 379.281,764.719 C378.281,763.719 377.281,761.719 376.281,761.719 C375.281,760.719 374.281,759.719 374.281,758.719 C374.281,758.719 373.281,756.719 371.281,753.719 C368.281,750.719 368.281,749.719 370.281,748.719 C372.281,746.719 372.281,746.719 370.281,746.719 C368.281,746.719 366.281,745.719 365.281,744.719 C363.281,743.719 362.281,744.719 360.281,745.719 C358.281,746.719 358.281,746.719 353.281,742.719 C351.281,739.719 346.281,735.719 342.281,732.719 C336.281,727.719 335.281,726.719 333.281,721.719 C332.281,716.719 330.281,715.719 326.281,711.719 C323.281,709.719 320.281,707.719 320.281,706.719 C319.281,704.719 319.281,697.719 320.281,698.719 C320.281,698.719 321.281,697.719 321.281,697.719 C320.281,696.719 322.281,694.719 323.281,693.719 C324.281,692.719 325.281,690.719 325.281,690.719 C326.281,688.719 319.281,689.719 318.281,691.719 C317.281,692.719 316.281,692.719 314.281,691.719 C312.281,690.719 311.281,689.719 311.281,688.719 C311.281,687.719 308.281,687.719 305.281,689.719 C298.281,692.719 274.281,689.719 269.281,683.719 C268.281,682.719 266.281,681.719 264.281,682.719 C263.281,682.719 261.281,681.719 260.281,681.719 C259.281,680.719 257.281,679.719 255.281,679.719 C252.281,679.719 247.281,674.719 247.281,672.719 C246.281,670.719 248.281,670.719 251.281,673.719 C253.281,676.719 255.281,676.719 257.281,676.719 C260.281,676.719 263.281,677.719 266.281,678.719 C269.281,680.719 271.281,680.719 272.281,680.719 C273.281,679.719 272.281,678.719 269.281,677.719 C267.281,676.719 264.281,675.719 262.281,674.719 C261.281,673.719 258.281,672.719 257.281,672.719 C254.281,672.719 249.281,669.719 248.281,667.719 C246.281,664.719 240.281,662.719 234.281,662.719 C232.281,662.719 230.281,662.719 230.281,661.719 C229.281,661.719 224.281,660.719 219.281,660.719 C208.281,660.719 203.281,659.719 197.281,655.719 L193.281,653.719 L198.281,652.719 C200.281,652.719 203.281,652.719 203.281,652.719 C204.281,652.719 205.281,652.719 206.281,650.719 C208.281,649.719 209.281,649.719 210.281,649.719 C213.281,651.719 225.281,653.719 230.281,653.719 C235.281,653.719 236.281,653.719 238.281,654.719 C243.281,659.719 247.281,661.719 252.281,660.719 C255.281,660.719 257.281,659.719 258.281,659.719 C258.281,659.719 261.281,659.719 263.281,660.719 C281.281,668.719 289.281,670.719 300.281,671.719 C304.281,671.719 311.281,672.719 315.281,673.719 C319.281,674.719 324.281,674.719 326.281,674.719 C328.281,674.719 330.281,675.719 330.281,675.719 C331.281,675.719 330.281,677.719 330.281,679.719 C329.281,682.719 329.281,682.719 332.281,686.719 C335.281,688.719 337.281,690.719 337.281,691.719 C337.281,692.719 339.281,694.719 340.281,694.719 C342.281,695.719 344.281,697.719 346.281,700.719 C347.281,702.719 348.281,705.719 349.281,705.719 C349.281,705.719 352.281,708.719 355.281,711.719 C358.281,716.719 363.281,720.719 366.281,721.719 C369.281,723.719 372.281,725.719 372.281,725.719 C372.281,726.719 373.281,727.719 374.281,727.719 C376.281,727.719 378.281,729.719 379.281,730.719 C380.281,731.719 382.281,733.719 383.281,733.719 C384.281,733.719 385.281,734.719 384.281,738.719 C384.281,742.719 384.281,743.719 385.281,742.719 C386.281,742.719 387.281,743.719 387.281,745.719 C387.281,746.719 388.281,747.719 389.281,747.719 C390.281,747.719 391.281,750.719 391.281,755.719 C392.281,761.719 393.281,763.719 396.281,765.719 C398.281,767.719 398.281,768.719 398.281,770.719 C398.281,771.719 398.281,773.719 399.281,774.719 C404.281,778.719 410.281,785.719 410.281,788.719 C410.281,788.719 411.281,791.719 413.281,793.719 C416.281,796.719 417.281,798.719 416.281,800.719 C416.281,801.719 416.281,803.719 417.281,804.719 C418.281,804.719 419.281,807.719 420.281,810.719 C422.281,815.719 439.281,841.719 444.281,847.719 C448.281,852.719 451.281,853.719 459.281,854.719 C463.281,854.719 466.281,855.719 466.281,856.719 C466.281,856.719 467.281,856.719 468.281,855.719 C470.281,854.719 475.281,854.719 477.281,856.719 C478.281,856.719 479.281,855.719 482.281,853.719 C484.281,851.719 487.281,848.719 488.281,848.719 C490.281,847.719 490.281,846.719 488.281,843.719 C488.281,842.719 486.281,838.719 484.281,836.719 C481.281,832.719 477.281,823.719 477.281,818.719 C478.281,814.719 476.281,814.719 474.281,818.719 L472.281,821.719 L469.281,815.719 C467.281,813.719 466.281,809.719 466.281,808.719 C466.281,804.719 456.281,783.719 454.281,783.719 C454.281,783.719 454.281,781.719 454.281,779.719 C454.281,777.719 454.281,775.719 454.281,774.719 C453.281,774.719 451.281,771.719 449.281,769.719 C447.281,767.719 446.281,765.719 446.281,764.719 C446.281,764.719 443.281,762.719 441.281,761.719 C438.281,760.719 435.281,757.719 433.281,756.719 L430.281,753.719 L434.281,754.719 C437.281,754.719 438.281,754.719 438.281,753.719 C438.281,752.719 437.281,750.719 437.281,750.719 C436.281,750.719 436.281,749.719 436.281,748.719 C436.281,748.719 434.281,745.719 432.281,743.719 C430.281,740.719 428.281,737.719 428.281,736.719 C428.281,734.719 426.281,731.719 424.281,729.719 C420.281,725.719 419.281,723.719 422.281,723.719 C422.281,723.719 423.281,723.719 423.281,725.719 C423.281,727.719 424.281,727.719 425.281,725.719 C425.281,725.719 425.281,723.719 424.281,723.719 C423.281,722.719 421.281,719.719 419.281,717.719 C418.281,715.719 415.281,713.719 414.281,713.719 C413.281,713.719 411.281,712.719 409.281,710.719 C407.281,708.719 405.281,708.719 403.281,708.719 C401.281,709.719 399.281,708.719 395.281,705.719 C393.281,702.719 389.281,700.719 388.281,699.719 C386.281,699.719 383.281,696.719 381.281,693.719 C375.281,685.719 374.281,681.719 379.281,686.719 C380.281,687.719 383.281,689.719 386.281,690.719 L390.281,692.719 L385.281,687.719 C382.281,684.719 380.281,681.719 380.281,680.719 C380.281,679.719 379.281,678.719 378.281,678.719 C377.281,677.719 377.281,675.719 376.281,674.719 C376.281,672.719 373.281,667.719 364.281,657.719 C362.281,655.719 361.281,652.719 361.281,652.719 C360.281,652.719 359.281,650.719 358.281,648.719 L355.281,644.719 L358.281,646.719 C359.281,646.719 362.281,648.719 363.281,650.719 L367.281,653.719 L369.281,651.719 C372.281,647.719 379.281,648.719 380.281,652.719 C381.281,653.719 382.281,654.719 383.281,654.719 C383.281,653.719 383.281,653.719 382.281,652.719 C382.281,652.719 381.281,651.719 382.281,651.719 C382.281,650.719 384.281,651.719 387.281,656.719 C388.281,658.719 388.281,659.719 388.281,661.719 C386.281,664.719 387.281,668.719 389.281,667.719 C389.281,667.719 390.281,667.719 391.281,668.719 C391.281,669.719 392.281,669.719 393.281,667.719 C394.281,665.719 394.281,665.719 395.281,668.719 L396.281,670.719 L396.281,667.719 C396.281,665.719 396.281,663.719 394.281,662.719 C392.281,659.719 392.281,658.719 392.281,655.719 L393.281,651.719 L399.281,658.719 C404.281,663.719 406.281,665.719 405.281,667.719 C405.281,668.719 405.281,669.719 406.281,669.719 C407.281,669.719 408.281,669.719 408.281,670.719 C408.281,670.719 408.281,673.719 410.281,675.719 C411.281,677.719 411.281,680.719 411.281,681.719 C411.281,682.719 411.281,683.719 412.281,683.719 C413.281,683.719 415.281,685.719 416.281,687.719 C417.281,688.719 419.281,691.719 421.281,692.719 C422.281,693.719 424.281,694.719 424.281,695.719 C424.281,696.719 425.281,698.719 428.281,700.719 C430.281,703.719 431.281,705.719 431.281,706.719 C431.281,706.719 432.281,708.719 433.281,709.719 C435.281,711.719 435.281,713.719 435.281,714.719 C435.281,715.719 437.281,717.719 440.281,719.719 C443.281,721.719 447.281,726.719 453.281,737.719 C454.281,738.719 457.281,742.719 461.281,747.719 C464.281,752.719 470.281,761.719 474.281,767.719 C482.281,780.719 483.281,781.719 496.281,785.719 C504.281,787.719 508.281,787.719 509.281,784.719 C509.281,781.719 510.281,779.719 512.281,780.719 C513.281,782.719 517.281,780.719 522.281,777.719 C525.281,775.719 528.281,775.719 528.281,778.719 C529.281,781.719 527.281,783.719 523.281,783.719 C520.281,783.719 519.281,784.719 519.281,787.719 C519.281,787.719 521.281,787.719 525.281,787.719 C529.281,787.719 532.281,788.719 534.281,788.719 C536.281,789.719 541.281,797.719 540.281,799.719 C539.281,801.719 541.281,805.719 543.281,806.719 C545.281,806.719 547.281,809.719 548.281,813.719 C549.281,815.719 549.281,817.719 552.281,818.719 C554.281,818.719 556.281,821.719 558.281,824.719 C559.281,826.719 562.281,831.719 564.281,834.719 C566.281,837.719 571.281,844.719 573.281,849.719 C576.281,855.719 579.281,860.719 579.281,860.719 C580.281,860.719 581.281,862.719 581.281,865.719 C582.281,869.719 588.281,878.719 590.281,878.719 C590.281,878.719 593.281,879.719 595.281,881.719 C601.281,885.719 602.281,887.719 599.281,888.719 C598.281,888.719 597.281,889.719 596.281,890.719 C596.281,892.719 596.281,892.719 596.281,892.719 C597.281,892.719 601.281,897.719 601.281,898.719 C602.281,899.719 603.281,900.719 605.281,902.719 L608.281,905.719 L609.281,903.719 C610.281,901.719 611.281,901.719 612.281,902.719 C614.281,903.719 614.281,905.719 612.281,906.719 C610.281,906.719 613.281,910.719 616.281,910.719 C617.281,910.719 618.281,910.719 618.281,911.719 C618.281,911.719 618.281,911.719 619.281,910.719 C620.281,908.719 620.281,908.719 622.281,910.719 C624.281,911.719 625.281,912.719 626.281,911.719 C627.281,910.719 627.281,910.719 628.281,910.719 C628.281,910.719 629.281,910.719 629.281,909.719 C631.281,907.719 635.281,907.719 637.281,909.719 C638.281,910.719 640.281,910.719 642.281,910.719 C643.281,910.719 646.281,912.719 648.281,914.719 C651.281,917.719 652.281,917.719 654.281,916.719 C655.281,916.719 656.281,916.719 657.281,916.719 C658.281,916.719 661.281,915.719 663.281,913.719 C668.281,911.719 668.281,911.719 678.281,913.719 C694.281,915.719 695.281,916.719 703.281,919.719 C706.281,919.719 706.281,924.719 704.281,924.719 C703.281,924.719 710.281,933.719 711.281,933.719 C712.281,934.719 713.281,933.719 714.281,933.719 C715.281,932.719 715.281,932.719 714.281,932.719 C712.281,932.719 708.281,927.719 708.281,924.719 C708.281,923.719 708.281,922.719 708.281,922.719 C708.281,922.719 711.281,923.719 714.281,926.719 C720.281,931.719 724.281,938.719 721.281,938.719 C720.281,938.719 720.281,937.719 720.281,936.719 C720.281,935.719 719.281,935.719 718.281,935.719 C716.281,935.719 716.281,940.719 718.281,942.719 C720.281,943.719 720.281,943.719 719.281,941.719 C718.281,940.719 717.281,939.719 718.281,939.719 C718.281,938.719 725.281,942.719 725.281,943.719 C726.281,943.719 726.281,944.719 726.281,944.719 C728.281,943.719 735.281,950.719 738.281,955.719 C739.281,957.719 742.281,959.719 744.281,959.719 C747.281,961.719 749.281,963.719 747.281,963.719 C746.281,963.719 746.281,963.719 746.281,964.719 C746.281,964.719 745.281,966.719 744.281,967.719 C741.281,969.719 739.281,983.719 738.281,995.719 L737.281,1006.719 L740.281,1007.719 C743.281,1007.719 744.281,1004.719 745.281,993.719 C746.281,977.719 747.281,974.719 749.281,967.719 C752.281,957.719 754.281,955.719 758.281,956.719 C762.281,957.719 764.281,959.719 765.281,962.719 C765.281,964.719 768.281,968.719 770.281,967.719 C771.281,967.719 771.281,969.719 770.281,971.719 C769.281,972.719 768.281,976.719 768.281,980.719 L767.281,986.719 L774.281,980.719 C778.281,976.719 781.281,972.719 782.281,969.719 C784.281,964.719 787.281,963.719 793.281,963.719 C795.281,963.719 796.281,962.719 795.281,960.719 C795.281,959.719 796.281,958.719 797.281,959.719 C798.281,960.719 804.281,960.719 810.281,960.719 C819.281,961.719 821.281,960.719 821.281,959.719 C821.281,958.719 821.281,957.719 821.281,956.719 C820.281,956.719 820.281,954.719 820.281,952.719 L821.281,949.719 L814.281,947.719 C810.281,946.719 806.281,946.719 805.281,945.719 C803.281,945.719 798.281,939.719 797.281,937.719 C797.281,936.719 798.281,935.719 799.281,933.719 C799.281,932.719 800.281,932.719 804.281,933.719 C807.281,934.719 812.281,935.719 817.281,935.719 C824.281,936.719 836.281,940.719 841.281,943.719 C848.281,948.719 855.281,953.719 857.281,953.719 C858.281,953.719 861.281,954.719 862.281,954.719 C866.281,955.719 874.281,953.719 879.281,951.719 C880.281,951.719 883.281,948.719 885.281,945.719 C897.281,930.719 899.281,928.719 904.281,923.719 C908.281,920.719 911.281,917.719 912.281,917.719 C914.281,917.719 914.281,916.719 915.281,915.719 C915.281,915.719 915.281,914.719 916.281,914.719 C916.281,914.719 918.281,913.719 920.281,912.719 L923.281,910.719 L914.281,902.719 C896.281,886.719 889.281,878.719 885.281,869.719 C884.281,866.719 882.281,862.719 880.281,860.719 C878.281,858.719 875.281,852.719 873.281,848.719 C870.281,841.719 863.281,832.719 857.281,826.719 C855.281,824.719 855.281,823.719 856.281,821.719 C857.281,820.719 857.281,818.719 857.281,817.719 C857.281,816.719 858.281,814.719 859.281,813.719 C862.281,811.719 863.281,810.719 861.281,804.719 C860.281,801.719 858.281,795.719 858.281,792.719 C857.281,789.719 856.281,785.719 855.281,784.719 C854.281,783.719 853.281,780.719 853.281,778.719 C853.281,777.719 851.281,772.719 849.281,769.719 C848.281,765.719 846.281,761.719 845.281,759.719 C842.281,754.719 842.281,742.719 843.281,733.719 C844.281,729.719 845.281,725.719 846.281,723.719 C846.281,722.719 846.281,717.719 846.281,707.719 C845.281,699.719 845.281,692.719 845.281,691.719 C845.281,690.719 845.281,688.719 845.281,685.719 C843.281,681.719 844.281,678.719 847.281,674.719 C848.281,672.719 846.281,669.719 839.281,664.719 L835.281,660.719 L827.281,663.719 C823.281,665.719 819.281,667.719 818.281,667.719 C817.281,666.719 815.281,667.719 814.281,668.719 C813.281,669.719 811.281,669.719 811.281,669.719 C810.281,669.719 808.281,671.719 805.281,673.719 C803.281,674.719 800.281,676.719 799.281,676.719 C798.281,675.719 791.281,679.719 789.281,680.719 C789.281,681.719 786.281,682.719 783.281,682.719 C780.281,683.719 774.281,684.719 770.281,685.719 C765.281,687.719 761.281,688.719 761.281,688.719 C760.281,688.719 761.281,690.719 761.281,692.719 C762.281,694.719 762.281,696.719 762.281,697.719 C761.281,702.719 763.281,706.719 767.281,709.719 C772.281,713.719 785.281,726.719 786.281,729.719 C787.281,731.719 787.281,733.719 786.281,736.719 C785.281,738.719 784.281,741.719 785.281,745.719 C785.281,750.719 785.281,751.719 783.281,756.719 C781.281,759.719 778.281,763.719 775.281,766.719 C772.281,768.719 771.281,771.719 771.281,772.719 C770.281,774.719 769.281,776.719 767.281,778.719 C765.281,780.719 764.281,781.719 761.281,780.719 C759.281,780.719 756.281,778.719 755.281,777.719 C753.281,774.719 753.281,774.719 752.281,776.719 C751.281,778.719 750.281,778.719 750.281,776.719 C749.281,774.719 749.281,773.719 746.281,774.719 C741.281,775.719 739.281,776.719 739.281,777.719 C739.281,779.719 728.281,779.719 727.281,777.719 C726.281,776.719 724.281,775.719 722.281,774.719 C719.281,773.719 717.281,771.719 715.281,768.719 C714.281,766.719 713.281,765.719 712.281,765.719 C711.281,764.719 702.281,773.719 701.281,775.719 C701.281,776.719 700.281,777.719 699.281,777.719 C696.281,778.719 703.281,767.719 707.281,764.719 C709.281,762.719 710.281,760.719 710.281,759.719 C710.281,758.719 712.281,756.719 714.281,755.719 C717.281,752.719 718.281,752.719 716.281,750.719 C715.281,748.719 715.281,747.719 717.281,746.719 C718.281,745.719 719.281,744.719 719.281,743.719 C719.281,739.719 719.281,734.719 720.281,728.719 C721.281,724.719 721.281,720.719 721.281,720.719 C720.281,719.719 717.281,716.719 712.281,714.719 L705.281,709.719 L703.281,711.719 C702.281,713.719 702.281,715.719 702.281,720.719 C702.281,726.719 702.281,727.719 698.281,733.719 C690.281,745.719 685.281,751.719 683.281,752.719 C681.281,753.719 679.281,754.719 677.281,754.719 C675.281,754.719 672.281,754.719 669.281,755.719 C663.281,757.719 658.281,758.719 655.281,756.719 C654.281,756.719 650.281,753.719 647.281,750.719 C643.281,746.719 642.281,743.719 642.281,741.719 C642.281,739.719 641.281,739.719 639.281,739.719 C637.281,740.719 636.281,741.719 635.281,742.719 C634.281,745.719 633.281,745.719 631.281,741.719 C628.281,737.719 627.281,737.719 624.281,740.719 C621.281,743.719 621.281,745.719 623.281,749.719 C625.281,751.719 626.281,754.719 626.281,756.719 C627.281,761.719 635.281,768.719 649.281,780.719 L652.281,782.719 L650.281,787.719 C650.281,790.719 648.281,792.719 647.281,793.719 C644.281,795.719 637.281,796.719 631.281,794.719 C628.281,793.719 624.281,792.719 623.281,792.719 C621.281,792.719 619.281,791.719 618.281,791.719 C616.281,789.719 615.281,790.719 615.281,791.719 C614.281,794.719 614.281,794.719 609.281,791.719 C607.281,790.719 605.281,789.719 604.281,789.719 C603.281,789.719 602.281,788.719 601.281,787.719 C598.281,786.719 588.281,791.719 586.281,795.719 C585.281,797.719 585.281,797.719 584.281,795.719 C583.281,793.719 580.281,792.719 578.281,791.719 C574.281,790.719 572.281,788.719 573.281,785.719 C575.281,781.719 573.281,775.719 570.281,771.719 C564.281,763.719 565.281,758.719 576.281,745.719 C580.281,740.719 582.281,736.719 582.281,736.719 C582.281,735.719 579.281,736.719 576.281,736.719 C570.281,738.719 553.281,738.719 546.281,737.719 L542.281,736.719 L542.281,740.719 C542.281,742.719 544.281,746.719 545.281,749.719 L548.281,754.719 L545.281,754.719 C544.281,754.719 542.281,753.719 542.281,752.719 C539.281,750.719 539.281,753.719 541.281,756.719 C542.281,758.719 542.281,761.719 543.281,763.719 C543.281,765.719 543.281,767.719 544.281,768.719 C546.281,769.719 549.281,777.719 549.281,781.719 C549.281,784.719 544.281,783.719 539.281,778.719 C536.281,776.719 530.281,771.719 526.281,766.719 C521.281,761.719 517.281,758.719 517.281,758.719 C514.281,760.719 511.281,757.719 508.281,751.719 C505.281,746.719 504.281,743.719 500.281,740.719 C497.281,738.719 494.281,735.719 493.281,733.719 C492.281,731.719 491.281,729.719 490.281,729.719 C490.281,728.719 487.281,723.719 484.281,717.719 C481.281,711.719 477.281,704.719 475.281,703.719 C474.281,701.719 473.281,699.719 472.281,698.719 C472.281,695.719 468.281,692.719 464.281,690.719 C461.281,689.719 458.281,687.719 457.281,686.719 C456.281,684.719 453.281,681.719 451.281,680.719 C440.281,669.719 435.281,664.719 433.281,660.719 C432.281,658.719 430.281,656.719 429.281,655.719 C422.281,652.719 420.281,651.719 419.281,649.719 C418.281,646.719 417.281,645.719 406.281,641.719 C395.281,637.719 391.281,634.719 384.281,626.719 C379.281,619.719 379.281,617.719 385.281,617.719 C387.281,617.719 390.281,616.719 392.281,615.719 C396.281,614.719 398.281,614.719 397.281,616.719 C397.281,616.719 397.281,617.719 398.281,617.719 C399.281,617.719 401.281,618.719 403.281,620.719 C405.281,622.719 410.281,625.719 413.281,627.719 C422.281,632.719 427.281,635.719 429.281,638.719 C430.281,639.719 433.281,642.719 435.281,643.719 C437.281,644.719 438.281,645.719 438.281,646.719 C438.281,647.719 439.281,648.719 441.281,648.719 C445.281,649.719 446.281,649.719 451.281,654.719 C452.281,655.719 454.281,657.719 455.281,657.719 C456.281,657.719 457.281,658.719 457.281,658.719 C457.281,660.719 462.281,665.719 465.281,666.719 C466.281,666.719 467.281,666.719 468.281,666.719 C469.281,665.719 470.281,665.719 471.281,667.719 C473.281,669.719 475.281,671.719 478.281,672.719 C481.281,673.719 482.281,672.719 485.281,670.719 C487.281,667.719 487.281,667.719 491.281,669.719 C492.281,670.719 496.281,671.719 498.281,671.719 L502.281,672.719 L509.281,665.719 C514.281,660.719 516.281,657.719 517.281,655.719 C517.281,653.719 514.281,650.719 505.281,643.719 C499.281,637.719 493.281,632.719 492.281,632.719 C491.281,631.719 487.281,630.719 483.281,630.719 C477.281,628.719 470.281,627.719 468.281,625.719 C467.281,625.719 466.281,624.719 464.281,624.719 C463.281,624.719 460.281,622.719 457.281,619.719 C454.281,617.719 451.281,614.719 450.281,614.719 C449.281,614.719 445.281,612.719 443.281,610.719 C440.281,608.719 437.281,606.719 435.281,606.719 C433.281,606.719 430.281,605.719 429.281,604.719 C429.281,603.719 425.281,602.719 421.281,602.719 C417.281,602.719 413.281,601.719 410.281,600.719 C400.281,597.719 377.281,594.719 376.281,597.719 C375.281,598.719 365.281,597.719 363.281,596.719 C362.281,595.719 358.281,595.719 353.281,595.719 L344.281,595.719 L337.281,590.719 C326.281,582.719 325.281,582.719 320.281,582.719 C317.281,582.719 314.281,582.719 314.281,582.719 C314.281,583.719 313.281,583.719 312.281,583.719 C311.281,583.719 308.281,583.719 305.281,585.719 C301.281,587.719 300.281,587.719 297.281,586.719 C294.281,585.719 293.281,585.719 289.281,587.719 C286.281,588.719 283.281,590.719 282.281,591.719 C281.281,592.719 280.281,593.719 279.281,593.719 C278.281,593.719 278.281,593.719 278.281,594.719 C277.281,596.719 273.281,599.719 269.281,601.719 C265.281,602.719 264.281,603.719 264.281,604.719 C263.281,607.719 262.281,609.719 251.281,616.719 C247.281,619.719 243.281,622.719 241.281,624.719 C237.281,627.719 230.281,630.719 222.281,632.719 C217.281,633.719 212.281,634.719 210.281,635.719 C208.281,636.719 204.281,636.719 202.281,636.719 C200.281,636.719 197.464,639.235 195.281,639.719 C170.109,645.301 150.745,644.815 149.341,644.986 C136.44,646.56 130.573,665.642 128.573,667.642 C123.573,670.642 122.281,679.719 123.281,683.719 C125.281,694.719 125.281,712.719 125.281,727.719 C124.281,735.719 124.281,747.719 124.281,752.719 C124.281,758.719 124.281,762.719 123.281,763.719 C123.281,764.719 122.281,765.719 122.281,767.719 C121.281,775.719 119.281,780.719 118.281,781.719 C118.281,782.719 117.281,785.719 117.281,788.719 C117.281,792.719 116.281,795.719 115.281,797.719 C114.281,798.719 114.281,801.719 114.281,806.719 C114.281,816.719 112.281,834.719 111.281,834.719 C110.281,834.719 110.281,839.719 112.281,843.719 C113.281,844.719 114.281,849.719 114.281,853.719 C115.281,860.719 115.281,860.719 112.281,862.719 C109.281,864.719 105.281,873.719 104.281,876.719 C104.281,879.719 103.281,882.719 99.281,886.719 C96.281,891.719 94.281,895.719 92.281,902.719 C92.281,905.719 91.281,908.719 91.281,909.719 C90.281,910.719 89.281,913.719 88.281,914.719 C88.281,916.719 84.281,920.719 81.281,923.719 C77.281,927.719 75.281,930.719 75.281,930.719 C76.281,930.719 75.281,931.719 75.281,931.719 C73.281,932.719 70.281,938.719 68.281,942.719 C66.281,947.719 60.281,956.719 58.281,958.719 C57.281,959.719 55.281,962.719 53.281,964.719 C50.281,970.719 47.281,972.719 37.281,977.719 C31.281,980.719 27.281,983.719 22.281,987.719 C16.281,993.719 15.281,993.719 15.281,998.719 C15.281,1008.719 14.281,1011.719 6.281,1019.719 L0.281,1025.719 L0.281,987.719 C0.281,952.719 0.281,949.719 1.281,946.719 C2.281,945.719 9.643,940.865 11.017,939.411 C20.776,929.078 26.57,925.096 28.099,922.328 C33.874,911.874 37.221,909.172 46.221,899.172 C48.221,897.172 51.221,893.172 53.221,890.172 C54.221,888.172 56.221,885.172 57.221,883.172 C58.221,881.172 60.221,879.172 60.221,879.172 C59.221,879.172 62.221,875.172 65.221,871.172 C72.221,861.172 84.434,852.051 86.382,831.89 C86.686,828.742 88.71,807.502 89.396,804.758 C92.411,792.7 95.603,778.28 96.431,774.612 C97.258,770.944 95.754,760.062 96.614,754.04 C98.187,743.029 97.648,737.987 96.648,726.987 C96.648,722.987 95.648,716.987 94.648,713.987 C94.648,710.987 94.648,707.987 94.648,707.987 C94.648,706.987 94.648,702.987 94.648,698.987 C92.648,686.987 91.109,680.112 95.435,669.101 C99.76,658.09 122.197,644.84 128.281,636.719 C134.365,628.598 141.281,621.719 148.281,618.719 C154.281,614.719 156.281,614.719 156.281,617.719 C156.281,618.719 156.281,619.719 157.281,619.719 C157.281,619.719 158.281,618.719 158.281,618.719 C157.281,617.719 159.281,616.719 160.281,616.719 C162.281,616.719 162.281,615.719 162.281,615.719 C161.281,614.719 161.281,613.719 163.281,612.719 C164.281,611.719 166.281,611.719 166.281,611.719 C167.281,611.719 168.281,612.719 170.281,612.719 C172.281,612.719 174.281,613.719 175.281,615.719 C176.281,616.719 177.281,616.719 178.281,615.719 C180.281,615.719 180.281,614.719 180.281,613.719 C180.281,612.719 183.281,610.719 185.281,610.719 C186.281,610.719 188.281,608.719 189.281,607.719 C190.281,606.719 192.281,604.719 194.281,604.719 C197.281,604.719 205.281,602.719 207.281,601.719 C208.281,600.719 209.281,599.719 210.281,600.719 C211.281,602.719 213.281,602.719 212.281,601.719 C212.281,600.719 214.281,599.719 223.281,595.719 C226.281,594.719 231.281,589.719 233.281,585.719 C234.281,584.719 235.281,582.719 236.281,582.719 C237.281,582.719 240.281,581.719 242.281,579.719 C244.281,578.719 247.281,577.719 248.281,577.719 C248.281,577.719 250.281,576.719 250.281,575.719 C251.281,574.719 252.281,573.719 253.281,573.719 C255.281,573.719 269.281,565.719 272.281,562.719 C273.281,561.719 273.281,557.719 274.281,552.719 C275.281,541.719 277.281,526.719 279.281,523.719 C280.281,521.719 282.281,518.719 282.281,517.719 C283.281,514.719 286.281,506.719 289.281,501.719 C294.281,493.719 304.281,490.719 326.281,487.719 C341.281,486.719 369.281,486.719 376.281,488.719 C381.281,489.719 400.281,488.719 410.281,486.719 C412.281,486.719 416.281,486.719 418.281,486.719 C422.281,487.719 424.281,487.719 427.281,486.719 C430.281,485.719 431.281,485.719 432.281,486.719 C433.281,487.719 434.281,488.719 434.281,488.719 C435.281,488.719 436.281,488.719 437.281,489.719 C437.281,490.719 438.281,490.719 439.281,490.719 C441.281,489.719 443.281,491.719 444.281,494.719 C444.281,497.719 447.281,495.719 447.281,492.719 C448.281,490.719 447.281,489.719 446.281,490.719 C445.281,490.719 444.281,490.719 444.281,489.719 C444.281,488.719 443.281,487.719 441.281,487.719 C439.281,486.719 438.281,485.719 438.281,483.719 C437.281,482.719 438.281,479.719 439.281,478.719 C442.281,474.719 441.281,471.719 434.281,464.719 C429.281,457.719 429.281,457.719 429.281,456.719 C429.281,455.719 428.281,453.719 427.281,451.719 C423.281,447.719 418.281,436.719 417.281,430.719 C417.281,428.719 415.281,424.719 414.281,422.719 C413.281,420.719 412.281,418.719 412.281,417.719 C412.281,414.719 410.281,413.719 408.281,415.719 C406.281,417.719 408.281,423.719 411.281,429.719 C412.281,432.719 414.281,435.719 414.281,435.719 C414.281,438.719 417.281,445.719 421.281,453.719 C424.281,460.719 425.281,463.719 422.281,460.719 C421.281,460.719 419.281,456.719 418.281,453.719 C415.281,447.719 414.281,446.719 412.281,446.719 C410.281,446.719 408.281,446.719 408.281,445.719 C406.281,445.719 407.281,445.719 409.281,445.719 C410.281,445.719 412.281,444.719 412.281,443.719 C413.281,443.719 404.281,416.719 400.281,407.719 C397.281,401.719 395.281,389.719 396.281,389.719 C397.281,390.719 396.281,385.719 394.281,384.719 C392.281,382.719 383.281,366.719 384.281,366.719 C385.281,366.719 386.281,366.719 386.281,367.719 C386.281,367.719 386.281,368.719 386.281,367.719 C387.281,367.719 384.281,360.719 381.281,356.719 C380.281,354.719 380.281,354.719 381.281,353.719 C382.281,352.719 382.281,351.719 381.281,352.719 C380.281,353.719 375.281,349.719 376.281,348.719 C376.281,346.719 368.281,333.719 365.281,328.719 C363.281,326.719 359.281,321.719 357.281,318.719 C347.281,301.719 334.281,283.719 332.281,280.719 C328.281,277.719 315.281,259.719 311.281,252.719 C309.281,249.719 305.281,244.719 302.281,241.719 C299.281,237.719 292.281,228.719 287.281,222.719 C277.281,206.719 275.281,203.719 266.281,193.719 C257.281,184.719 247.281,172.719 244.281,167.719 C242.281,163.719 241.281,157.719 243.281,150.719 C244.281,143.719 244.281,135.719 243.281,133.719 C242.281,132.719 242.281,130.719 243.281,129.719 C243.281,128.719 243.281,127.719 243.281,126.719 C242.281,126.719 241.281,124.719 241.281,123.719 C242.281,121.719 249.281,106.719 250.281,105.719 C251.281,105.719 253.281,103.719 256.281,101.719 C262.281,95.719 271.281,89.719 290.281,76.719 C298.281,70.719 319.281,60.719 321.281,60.719 C322.281,60.719 327.281,57.719 333.281,54.719 C343.281,49.719 355.281,41.719 367.281,32.719 C372.281,29.719 396.281,15.719 398.281,16.719 C399.281,16.719 426.281,2.719 428.281,0.719 C429.281,0.719 538.281,0.719 696.281,0.719 L962.281,0.719 L964.281,11.719 C965.281,17.719 966.281,23.719 966.281,25.719 C966.281,26.719 966.281,28.719 966.281,29.719 C968.281,34.719 969.281,39.719 972.281,56.719 C974.281,65.719 976.281,76.719 977.281,81.719 C978.281,85.719 980.281,90.719 980.281,94.719 C981.281,102.719 984.281,114.719 985.281,117.719 C988.281,122.719 997.281,146.719 998.281,152.719 C999.281,155.719 1000.281,159.719 1001.281,160.719 C1002.281,161.719 1002.281,164.719 1002.281,167.719 C1002.281,174.719 1004.281,185.719 1007.281,190.719 C1008.281,192.719 1010.281,195.719 1012.281,196.719 C1013.281,197.719 1016.281,199.719 1017.281,202.719 C1019.281,204.719 1021.281,206.719 1022.281,206.719 C1024.281,206.719 1025.281,207.719 1028.281,212.719 L1031.281,219.719 L1038.281,219.719 C1046.281,220.719 1048.281,219.719 1047.281,213.719 C1046.281,208.719 1048.281,206.719 1054.281,205.719 C1059.281,204.719 1067.281,199.719 1072.281,193.719 C1073.281,191.719 1078.281,187.719 1082.281,184.719 C1086.281,181.719 1091.281,176.719 1094.281,173.719 C1105.281,160.719 1114.281,152.719 1120.281,150.719 C1128.281,147.719 1133.281,147.719 1142.281,151.719 C1149.281,154.719 1151.281,156.719 1154.281,160.719 C1156.281,163.719 1159.281,166.719 1160.281,168.719 C1162.281,170.719 1165.281,190.719 1168.281,214.719 C1168.281,220.719 1169.281,227.719 1169.281,229.719 C1171.281,240.719 1171.281,255.719 1169.281,267.719 C1168.281,276.719 1168.281,287.719 1168.281,302.719 C1168.281,321.719 1167.281,324.719 1165.281,334.719 C1164.281,340.719 1162.281,347.719 1162.281,350.719 C1162.281,352.719 1160.281,358.719 1159.281,364.719 C1155.281,383.719 1154.281,391.719 1153.281,394.719 C1153.281,396.719 1153.281,399.719 1152.281,401.719 C1150.281,403.719 1150.281,406.719 1150.281,408.719 C1151.281,410.719 1150.281,411.719 1148.281,414.719 C1144.281,418.719 1144.281,421.719 1147.281,427.719 C1152.281,436.719 1164.281,451.719 1168.281,451.719 C1169.281,451.719 1171.281,450.719 1172.281,449.719 C1174.281,448.719 1176.281,448.719 1176.281,449.719 C1177.281,450.719 1180.281,450.719 1182.281,447.719 C1183.281,446.719 1183.281,444.719 1183.281,442.719 C1183.281,440.719 1183.281,438.719 1183.281,437.719 C1184.281,435.719 1181.281,429.719 1175.281,422.719 C1172.281,420.719 1172.281,419.719 1173.281,419.719 C1174.281,419.719 1175.281,418.719 1175.281,417.719 C1175.281,416.719 1176.281,417.719 1178.281,418.719 C1179.281,419.719 1181.281,420.719 1182.281,420.719 C1188.281,420.719 1199.281,426.719 1200.281,429.719 C1200.281,430.719 1203.281,434.719 1206.281,436.719 C1209.281,439.719 1211.281,442.719 1211.281,443.719 C1211.281,444.719 1212.281,444.719 1215.281,445.719 C1219.281,445.719 1221.281,447.719 1219.281,451.719 C1218.281,453.719 1218.281,454.719 1219.281,460.719 C1221.281,464.719 1222.281,468.719 1223.281,469.719 C1223.281,470.719 1224.281,471.719 1224.281,472.719 C1223.281,473.719 1224.281,475.719 1225.281,475.719 C1226.281,476.719 1226.281,480.719 1226.281,484.719 C1226.281,493.719 1226.281,494.719 1217.281,503.719 C1214.281,507.719 1211.281,510.719 1212.281,510.719 C1212.281,510.719 1215.281,511.719 1218.281,512.719 C1227.281,516.719 1235.281,519.719 1235.281,521.719 C1235.281,521.719 1236.281,522.719 1237.281,523.719 C1242.281,525.719 1243.281,526.719 1240.281,528.719 C1238.281,531.719 1238.281,531.719 1239.281,535.719 C1241.281,540.719 1240.281,547.719 1238.281,563.719 C1237.281,570.719 1236.281,573.719 1233.281,578.719 C1228.281,586.719 1224.281,589.719 1221.281,590.719 C1218.281,591.719 1214.281,593.719 1209.281,595.719 C1207.281,596.719 1206.281,597.719 1206.281,597.719 C1205.281,597.719 1206.281,599.719 1207.281,600.719 C1209.281,605.719 1209.281,608.719 1206.281,611.719 C1205.281,613.719 1203.281,616.719 1202.281,619.719 C1201.281,622.719 1200.281,624.719 1199.281,625.719 C1199.281,626.719 1198.281,629.719 1198.281,633.719 C1197.281,637.719 1196.281,642.719 1195.281,644.719 C1194.281,646.719 1193.281,650.719 1193.281,654.719 C1192.281,660.719 1192.281,661.719 1189.281,662.719 C1184.281,664.719 1181.281,662.719 1178.281,653.719 L1175.281,644.719 L1176.281,633.719 C1180.281,604.719 1180.281,592.719 1177.281,590.719 C1177.281,590.719 1175.281,587.719 1174.281,585.719 C1173.281,583.719 1171.281,580.719 1170.281,580.719 C1169.281,579.719 1169.281,577.719 1169.281,576.719 C1169.281,575.719 1168.281,573.719 1166.281,572.719 C1160.281,567.719 1158.281,562.719 1158.281,554.719 C1158.281,552.719 1158.281,551.719 1155.281,550.719 C1152.281,548.719 1151.281,549.719 1151.281,553.719 C1150.281,556.719 1150.281,559.719 1149.281,561.719 C1148.281,563.719 1148.281,566.719 1149.281,567.719 C1149.281,568.719 1149.281,571.719 1149.281,574.719 C1149.281,577.719 1150.281,579.719 1151.281,580.719 C1153.281,581.719 1157.281,586.719 1157.281,588.719 C1157.281,591.719 1160.281,595.719 1161.281,595.719 C1162.281,596.719 1164.281,597.719 1166.281,599.719 C1169.281,602.719 1169.281,603.719 1162.281,614.719 C1156.281,625.719 1152.281,631.719 1148.281,639.719 C1146.281,643.719 1144.281,648.719 1142.281,650.719 C1141.281,652.719 1141.281,654.719 1141.281,657.719 C1142.281,661.719 1139.281,666.719 1137.281,665.719 C1136.281,664.719 1136.281,665.719 1136.281,666.719 C1136.281,667.719 1135.281,669.719 1135.281,669.719 C1134.281,670.719 1133.281,693.719 1135.281,702.719 C1135.281,707.719 1137.281,711.719 1138.281,714.719 C1139.281,715.719 1140.281,718.719 1141.281,719.719 C1141.281,721.719 1142.281,721.719 1148.281,720.719 C1152.281,720.719 1155.281,719.719 1157.281,717.719 C1159.281,716.719 1161.281,714.719 1162.281,714.719 C1166.281,714.719 1177.281,698.719 1177.281,693.719 C1177.281,691.719 1177.281,690.719 1178.281,690.719 C1179.281,690.719 1184.281,689.719 1188.281,688.719 C1195.281,687.719 1197.281,687.719 1198.281,688.719 C1201.281,690.719 1199.281,727.719 1196.281,730.719 C1195.281,731.719 1195.281,735.719 1196.281,734.719 C1197.281,734.719 1200.281,733.719 1199.281,732.719 C1198.281,732.719 1199.281,732.719 1201.281,731.719 C1203.281,730.719 1203.281,730.719 1205.281,731.719 C1206.281,732.719 1207.281,733.719 1207.281,734.719 C1207.281,736.719 1201.281,747.719 1197.281,750.719 C1196.281,752.719 1192.281,758.719 1189.281,764.719 L1184.281,775.719 L1188.281,774.719 C1191.281,774.719 1194.281,774.719 1195.281,774.719 C1199.281,775.719 1201.281,782.719 1199.281,788.719 C1198.281,790.719 1195.281,792.719 1191.281,795.719 C1185.281,798.719 1184.281,799.719 1181.281,807.719 C1177.281,815.719 1176.281,819.719 1178.281,819.719 C1179.281,819.719 1180.281,819.719 1180.281,820.719 C1180.281,822.719 1180.281,823.719 1181.281,823.719 C1183.281,825.719 1179.281,836.719 1173.281,843.719 C1170.281,846.719 1168.281,853.719 1167.281,859.719 C1166.281,866.719 1169.281,870.719 1175.281,875.719 C1180.281,878.719 1185.281,878.719 1198.281,876.719 C1207.281,874.719 1209.281,874.719 1210.281,872.719 C1210.281,871.719 1216.281,871.719 1222.281,871.719 C1222.281,871.719 1222.281,872.719 1221.281,874.719 C1220.281,875.719 1218.281,877.719 1217.281,880.719 C1216.281,882.719 1215.281,885.719 1214.281,886.719 C1214.281,887.719 1213.281,889.719 1213.281,891.719 C1210.281,900.719 1208.281,907.719 1208.281,908.719 C1207.281,909.719 1206.281,912.719 1205.281,916.719 C1203.281,919.719 1202.281,923.719 1201.281,924.719 C1199.281,929.719 1197.281,936.719 1197.281,941.719 C1197.281,944.719 1196.281,949.719 1196.281,953.719 C1194.281,964.719 1194.281,964.719 1202.281,972.719 C1207.281,977.719 1211.281,981.719 1212.281,983.719 C1213.281,985.719 1213.281,985.719 1212.281,981.719 C1211.281,979.719 1210.281,975.719 1209.281,974.719 C1207.281,970.719 1207.281,969.719 1210.281,968.719 C1211.281,968.719 1212.281,967.719 1212.281,967.719 C1212.281,966.719 1213.281,965.719 1213.281,964.719 C1214.281,962.719 1216.281,963.719 1215.281,967.719 C1215.281,973.719 1221.281,980.719 1235.281,991.719 C1245.281,998.719 1254.281,1004.719 1257.281,1006.719 C1258.281,1006.719 1260.281,1008.719 1261.281,1008.719 C1262.281,1009.719 1264.281,1011.719 1266.281,1012.719 C1268.281,1013.719 1271.281,1015.719 1273.281,1016.719 C1277.281,1018.719 1287.281,1022.719 1294.281,1023.719 C1296.281,1023.719 1300.281,1025.719 1303.281,1028.719 C1306.281,1030.719 1309.281,1032.719 1310.281,1032.719 C1311.281,1032.719 1312.281,1032.719 1313.281,1033.719 C1314.281,1034.719 1316.281,1035.719 1318.281,1035.719 C1319.281,1035.719 1321.281,1037.719 1322.281,1038.719 C1323.281,1039.719 1325.281,1040.719 1327.281,1040.719 C1329.281,1041.719 1332.281,1041.719 1333.281,1042.719 C1334.281,1043.719 1340.281,1045.719 1346.281,1046.719 C1355.281,1049.719 1360.281,1050.719 1372.281,1053.719 C1375.281,1053.719 1379.281,1054.719 1382.281,1055.719 C1389.281,1057.719 1404.281,1059.719 1421.281,1060.719 C1440.281,1061.719 1446.281,1062.719 1460.281,1064.719 C1468.281,1065.719 1477.281,1067.719 1479.281,1067.719 C1486.281,1068.719 1500.281,1070.719 1511.281,1073.719 C1518.281,1074.719 1526.281,1076.719 1528.281,1076.719 C1530.281,1076.719 1533.281,1077.719 1535.281,1077.719 C1541.281,1078.719 1549.281,1080.719 1558.281,1085.719 C1563.281,1087.719 1568.281,1090.719 1569.281,1090.719 C1569.281,1090.719 1571.281,1090.719 1572.281,1091.719 C1577.281,1094.719 1585.281,1096.719 1595.281,1100.719 C1601.281,1101.719 1606.281,1103.719 1608.281,1104.719 C1610.281,1105.719 1613.281,1106.719 1615.281,1106.719 C1617.281,1107.719 1619.281,1108.719 1620.281,1109.719 C1620.281,1110.719 1621.281,1111.719 1622.281,1111.719 C1623.281,1111.719 1626.281,1112.719 1628.281,1113.719 C1630.281,1114.719 1633.281,1116.719 1634.281,1116.719 C1634.281,1116.719 1636.281,1116.719 1637.281,1117.719 L1639.281,1119.719 L1640.281,1379.719 L1640.281,1640.719 L1376.281,1640.719 L1113.281,1640.719 L1114.281,1633.719 C1115.281,1629.719 1118.281,1624.719 1121.281,1620.719 C1130.281,1606.719 1142.281,1577.719 1146.281,1560.719 C1149.281,1547.719 1149.281,1547.719 1152.281,1539.719 C1154.281,1537.719 1154.281,1534.719 1155.281,1533.719 C1155.281,1532.719 1155.281,1530.719 1155.281,1530.719 C1156.281,1529.719 1158.281,1525.719 1159.281,1519.719 C1161.281,1514.719 1164.281,1506.719 1165.281,1503.719 C1166.281,1500.719 1168.281,1493.719 1169.281,1487.719 C1171.281,1482.719 1173.281,1477.719 1173.281,1476.719 C1175.281,1474.719 1177.281,1465.719 1181.281,1447.719 C1184.281,1429.719 1187.281,1412.719 1188.281,1411.719 C1188.281,1410.719 1189.281,1405.719 1190.281,1399.719 C1191.281,1394.719 1192.281,1389.719 1193.281,1388.719 C1193.281,1387.719 1197.281,1368.719 1198.281,1356.719 C1201.281,1337.719 1203.281,1328.719 1205.281,1326.719 C1206.281,1324.719 1207.281,1322.719 1207.281,1321.719 C1207.281,1320.719 1207.281,1319.719 1207.281,1319.719 C1208.281,1319.719 1209.281,1317.719 1209.281,1314.719 C1210.281,1311.719 1211.281,1310.719 1212.281,1310.719 C1213.281,1310.719 1213.281,1310.719 1214.281,1308.719 C1214.281,1306.719 1215.281,1304.719 1215.281,1302.719 C1216.281,1300.719 1217.281,1299.719 1217.281,1299.719 C1217.281,1298.719 1218.281,1295.719 1221.281,1291.719 C1224.281,1285.719 1224.281,1283.719 1223.281,1285.719 C1220.281,1287.719 1218.281,1290.719 1214.281,1296.719 C1213.281,1299.719 1211.281,1303.719 1209.281,1305.719 L1208.281,1307.719 L1208.281,1305.719 C1208.281,1303.719 1208.281,1302.719 1209.281,1301.719 C1210.281,1298.719 1217.281,1277.719 1218.281,1272.719 C1218.281,1269.719 1219.281,1265.719 1219.281,1264.719 C1219.281,1263.719 1219.281,1263.719 1218.281,1263.719 C1217.281,1263.719 1217.281,1263.719 1217.281,1264.719 C1216.281,1265.719 1216.281,1266.719 1214.281,1267.719 C1213.281,1269.719 1212.281,1269.719 1212.281,1266.719 C1212.281,1264.719 1213.281,1261.719 1214.281,1259.719 C1217.281,1255.719 1218.281,1253.719 1219.281,1255.719 C1219.281,1255.719 1219.281,1255.719 1220.281,1255.719 C1220.281,1255.719 1221.281,1253.719 1221.281,1250.719 C1221.281,1248.719 1222.281,1245.719 1224.281,1240.719 C1229.281,1232.719 1235.281,1214.719 1233.281,1213.719 C1233.281,1213.719 1231.281,1213.719 1230.281,1215.719 C1227.281,1218.719 1226.281,1217.719 1227.281,1210.719 C1227.281,1206.719 1227.281,1203.719 1227.281,1203.719 C1226.281,1203.719 1212.281,1218.719 1208.281,1223.719 C1206.281,1226.719 1203.281,1230.719 1201.281,1233.719 C1197.281,1240.719 1194.281,1245.719 1192.281,1245.719 C1192.281,1245.719 1192.281,1243.719 1193.281,1242.719 C1195.281,1239.719 1195.281,1239.719 1193.281,1239.719 C1192.281,1239.719 1191.281,1238.719 1192.281,1236.719 C1192.281,1233.719 1196.281,1210.719 1200.281,1191.719 C1200.281,1188.719 1201.281,1182.719 1201.281,1177.719 C1201.281,1163.719 1202.281,1152.719 1204.281,1144.719 C1205.281,1138.719 1205.281,1136.719 1204.281,1135.719 C1203.281,1135.719 1203.281,1131.719 1203.281,1127.719 C1203.281,1123.719 1202.281,1119.719 1201.281,1119.719 C1201.281,1119.719 1201.281,1115.719 1201.281,1108.719 C1202.281,1098.719 1201.281,1094.719 1198.281,1073.719 C1197.281,1068.719 1193.281,1055.719 1191.281,1051.719 C1190.281,1049.719 1190.281,1049.719 1186.281,1050.719 C1183.281,1051.719 1182.281,1051.719 1183.281,1050.719 C1184.281,1049.719 1184.281,1047.719 1182.281,1043.719 C1181.281,1040.719 1180.281,1037.719 1180.281,1036.719 C1179.281,1033.719 1178.281,1034.719 1175.281,1040.719 C1173.281,1043.719 1171.281,1046.719 1169.281,1048.719 C1168.281,1049.719 1165.281,1052.719 1164.281,1055.719 C1162.281,1057.719 1160.281,1059.719 1160.281,1060.719 C1159.281,1060.719 1157.281,1062.719 1156.281,1064.719 C1153.281,1068.719 1153.281,1069.719 1153.281,1071.719 C1154.281,1073.719 1154.281,1075.719 1153.281,1078.719 C1150.281,1086.719 1147.281,1099.719 1147.281,1113.719 C1146.281,1121.719 1146.281,1128.719 1145.281,1128.719 C1144.281,1129.719 1144.281,1133.719 1146.281,1134.719 C1148.281,1135.719 1150.281,1158.719 1148.281,1158.719 C1146.281,1158.719 1145.281,1155.719 1146.281,1153.719 C1147.281,1151.719 1147.281,1150.719 1147.281,1149.719 C1146.281,1147.719 1146.281,1147.719 1145.281,1150.719 C1143.281,1153.719 1142.281,1154.719 1140.281,1152.719 C1137.281,1150.719 1136.281,1150.719 1135.281,1152.719 C1135.281,1153.719 1134.281,1153.719 1132.281,1152.719 C1131.281,1151.719 1128.281,1150.719 1126.281,1150.719 C1120.281,1149.719 1121.281,1149.719 1117.281,1148.719 C1116.281,1147.719 1115.281,1146.719 1115.281,1145.719 C1115.281,1144.719 1111.281,1141.719 1110.281,1141.719 C1109.281,1141.719 1108.281,1142.719 1104.281,1149.719 C1103.281,1152.719 1100.281,1155.719 1099.281,1157.719 C1098.281,1159.719 1096.281,1161.719 1097.281,1162.719 C1097.281,1162.719 1096.281,1164.719 1095.281,1166.719 C1094.281,1168.719 1093.281,1171.719 1092.281,1173.719 C1091.281,1175.719 1090.281,1177.719 1089.281,1177.719 C1089.281,1177.719 1089.281,1178.719 1089.281,1179.719 C1091.281,1182.719 1091.281,1189.719 1089.281,1191.719 C1088.281,1192.719 1087.281,1192.719 1086.281,1192.719 C1084.281,1192.719 1084.281,1192.719 1084.281,1192.719 C1084.281,1194.719 1087.281,1208.719 1089.281,1212.719 C1092.281,1219.719 1096.281,1225.719 1098.281,1224.719 C1099.281,1223.719 1100.281,1223.719 1103.281,1226.719 C1108.281,1230.719 1115.281,1233.719 1122.281,1232.719 C1124.281,1232.719 1127.281,1232.719 1127.281,1232.719 C1126.281,1234.719 1122.281,1237.719 1120.281,1237.719 C1117.281,1237.719 1115.281,1240.719 1115.281,1243.719 C1115.281,1246.719 1114.281,1247.719 1111.281,1248.719 C1109.281,1249.719 1106.281,1250.719 1104.281,1250.719 C1102.281,1250.719 1099.281,1250.719 1097.281,1252.719 C1083.281,1262.719 1070.281,1268.719 1058.281,1268.719 C1054.281,1268.719 1049.281,1268.719 1046.281,1269.719 C1043.281,1270.719 1039.281,1270.719 1036.281,1270.719 L1031.281,1270.719 L1030.281,1275.719 C1029.281,1277.719 1027.281,1281.719 1025.281,1283.719 C1022.281,1287.719 1021.281,1296.719 1024.281,1297.719 C1025.281,1297.719 1025.281,1299.719 1026.281,1301.719 C1026.281,1304.719 1026.281,1304.719 1024.281,1304.719 C1023.281,1304.719 1020.281,1303.719 1017.281,1302.719 C1014.281,1301.719 1011.281,1300.719 1011.281,1299.719 C1010.281,1299.719 1006.281,1299.719 1003.281,1297.719 C997.281,1295.719 991.281,1295.719 987.281,1298.719 C982.281,1300.719 978.281,1302.719 977.281,1302.719 C977.281,1302.719 976.281,1302.719 975.281,1303.719 C974.281,1304.719 971.281,1305.719 969.281,1305.719 C965.281,1306.719 953.281,1313.719 953.281,1315.719 C953.281,1315.719 954.281,1316.719 955.281,1317.719 C956.281,1318.719 957.281,1318.719 958.281,1319.719 C958.281,1319.719 959.281,1320.719 961.281,1320.719 C962.281,1321.719 965.281,1323.719 966.281,1324.719 C967.281,1325.719 968.281,1326.719 969.281,1326.719 C969.281,1326.719 971.281,1325.719 973.281,1323.719 C975.281,1321.719 977.281,1320.719 978.281,1320.719 C979.281,1320.719 979.281,1324.719 977.281,1327.719 C976.281,1328.719 976.281,1330.719 976.281,1331.719 C975.281,1334.719 974.281,1335.719 973.281,1333.719 C972.281,1331.719 972.281,1331.719 969.281,1331.719 C966.281,1332.719 964.281,1331.719 963.281,1330.719 C961.281,1328.719 958.281,1326.719 957.281,1327.719 C957.281,1328.719 955.281,1328.719 954.281,1328.719 C949.281,1327.719 947.281,1329.719 936.281,1340.719 C919.281,1357.719 917.281,1360.719 911.281,1378.719 C903.281,1399.719 900.281,1420.719 904.281,1437.719 C906.281,1447.719 907.281,1450.719 908.281,1449.719 C910.281,1448.719 914.281,1453.719 914.281,1458.719 C915.281,1463.719 918.281,1468.719 925.281,1475.719 L930.281,1480.719 L928.281,1486.719 C926.281,1491.719 923.281,1499.719 918.281,1511.719 C917.281,1515.719 916.281,1518.719 916.281,1519.719 C916.281,1520.719 915.281,1521.719 914.281,1522.719 C912.281,1524.719 910.281,1533.719 911.281,1537.719 C912.281,1541.719 913.281,1546.719 913.281,1554.719 C913.281,1558.719 914.281,1565.719 914.281,1569.719 C915.281,1577.719 915.281,1590.719 914.281,1612.719 C914.281,1626.719 914.281,1628.719 916.281,1632.719 C917.281,1635.719 917.281,1637.719 917.281,1638.719 C917.281,1639.719 854.281,1640.719 458.281,1640.719 L0.281,1640.719 L0.281,1536.719 z M706.281,1619.719 C708.281,1617.719 707.281,1616.719 705.281,1617.719 C703.281,1618.719 702.281,1621.719 703.281,1621.719 C704.281,1621.719 705.281,1620.719 706.281,1619.719 z M1555.281,1606.719 C1556.281,1604.719 1558.281,1602.719 1559.281,1602.719 C1561.281,1602.719 1561.281,1599.719 1560.281,1599.719 C1559.281,1599.719 1559.281,1599.719 1559.281,1600.719 C1559.281,1600.719 1556.281,1601.719 1554.281,1602.719 C1551.281,1602.719 1550.281,1603.719 1550.281,1605.719 C1550.281,1605.719 1549.281,1607.719 1548.281,1607.719 C1547.281,1608.719 1548.281,1609.719 1549.281,1609.719 C1551.281,1609.719 1553.281,1607.719 1555.281,1606.719 z M1170.281,1604.719 C1171.281,1603.719 1170.281,1602.719 1169.281,1603.719 C1169.281,1603.719 1168.281,1604.719 1168.281,1604.719 C1167.281,1605.719 1168.281,1606.719 1169.281,1605.719 C1169.281,1605.719 1170.281,1604.719 1170.281,1604.719 z M782.281,1598.719 C782.281,1596.719 782.281,1593.719 782.281,1590.719 C783.281,1587.719 783.281,1583.719 784.281,1582.719 C784.281,1581.719 785.281,1578.719 784.281,1574.719 C784.281,1569.719 784.281,1567.719 785.281,1564.719 C788.281,1559.719 790.281,1552.719 794.281,1536.719 C796.281,1525.719 797.281,1519.719 799.281,1518.719 C800.281,1517.719 801.281,1516.719 801.281,1515.719 C801.281,1515.719 803.281,1510.719 806.281,1504.719 C808.281,1498.719 812.281,1491.719 813.281,1488.719 C814.281,1485.719 815.281,1481.719 816.281,1479.719 C819.281,1472.719 823.281,1463.719 829.281,1455.719 C832.281,1451.719 834.281,1446.719 835.281,1446.719 C835.281,1445.719 836.281,1443.719 837.281,1441.719 C839.281,1439.719 841.281,1436.719 842.281,1433.719 C844.281,1429.719 846.281,1426.719 852.281,1422.719 C860.281,1415.719 864.281,1409.719 865.281,1403.719 C866.281,1399.719 862.281,1380.719 858.281,1371.719 C857.281,1368.719 855.281,1363.719 855.281,1362.719 C855.281,1357.719 854.281,1356.719 850.281,1357.719 C846.281,1357.719 844.281,1357.719 841.281,1355.719 C839.281,1353.719 836.281,1352.719 836.281,1351.719 C835.281,1350.719 831.281,1350.719 830.281,1352.719 C828.281,1353.719 812.281,1353.719 811.281,1352.719 C810.281,1349.719 811.281,1344.719 813.281,1340.719 C815.281,1336.719 815.281,1335.719 813.281,1332.719 C812.281,1331.719 812.281,1329.719 812.281,1328.719 C812.281,1328.719 810.281,1326.719 808.281,1323.719 C805.281,1319.719 805.281,1317.719 808.281,1317.719 C809.281,1317.719 810.281,1317.719 811.281,1318.719 C812.281,1320.719 813.281,1320.719 814.281,1319.719 C815.281,1318.719 814.281,1317.719 812.281,1315.719 C808.281,1310.719 807.281,1307.719 807.281,1305.719 C808.281,1303.719 807.281,1301.719 805.281,1300.719 C797.281,1289.719 793.281,1284.719 787.281,1279.719 C783.281,1277.719 777.281,1271.719 773.281,1266.719 L766.281,1258.719 L764.281,1261.719 C763.281,1262.719 761.281,1265.719 760.281,1268.719 C760.281,1272.719 758.281,1276.719 757.281,1278.719 C756.281,1282.719 756.281,1284.719 756.281,1287.719 C757.281,1290.719 756.281,1291.719 754.281,1291.719 C753.281,1292.719 750.281,1293.719 748.281,1293.719 L744.281,1293.719 L743.281,1286.719 C743.281,1282.719 742.281,1277.719 742.281,1274.719 C742.281,1272.719 740.281,1267.719 738.281,1262.719 C736.281,1258.719 734.281,1252.719 732.281,1249.719 C731.281,1245.719 728.281,1239.719 727.281,1236.719 C725.281,1231.719 720.281,1218.719 715.281,1202.719 C715.281,1200.719 713.281,1197.719 713.281,1196.719 C712.281,1196.719 710.281,1193.719 708.281,1191.719 C705.281,1187.719 703.281,1186.719 705.281,1190.719 C706.281,1194.719 705.281,1194.719 701.281,1190.719 C698.281,1187.719 692.281,1183.719 687.281,1182.719 C682.281,1181.719 678.281,1189.719 679.281,1198.719 C679.281,1202.719 679.281,1204.719 678.281,1204.719 C676.281,1204.719 676.281,1207.719 677.281,1211.719 C679.281,1214.719 679.281,1227.719 678.281,1238.719 C677.281,1243.719 677.281,1247.719 678.281,1249.719 C680.281,1255.719 687.281,1279.719 687.281,1282.719 C687.281,1283.719 687.281,1285.719 688.281,1285.719 C689.281,1286.719 690.281,1300.719 691.281,1315.719 C691.281,1317.719 691.281,1320.719 692.281,1320.719 C692.281,1321.719 693.281,1327.719 694.281,1334.719 C694.281,1341.719 695.281,1350.719 697.281,1356.719 C698.281,1361.719 699.281,1368.719 700.281,1372.719 C701.281,1376.719 702.281,1381.719 703.281,1384.719 C704.281,1389.719 704.281,1391.719 706.281,1403.719 C706.281,1408.719 708.281,1414.719 709.281,1417.719 C710.281,1420.719 712.281,1423.719 712.281,1425.719 C712.281,1426.719 714.281,1429.719 715.281,1431.719 C716.281,1433.719 717.281,1438.719 717.281,1441.719 C717.281,1444.719 718.281,1448.719 718.281,1450.719 C719.281,1451.719 720.281,1454.719 720.281,1457.719 C721.281,1459.719 722.281,1462.719 723.281,1463.719 C724.281,1465.719 728.281,1478.719 732.281,1488.719 C733.281,1491.719 734.281,1495.719 735.281,1496.719 C736.281,1497.719 737.281,1499.719 737.281,1500.719 C737.281,1501.719 738.281,1504.719 739.281,1507.719 C740.281,1510.719 742.281,1513.719 742.281,1514.719 C742.281,1514.719 742.281,1516.719 743.281,1517.719 C745.281,1522.719 749.281,1531.719 749.281,1533.719 C749.281,1534.719 749.281,1534.719 749.281,1535.719 C751.281,1535.719 755.281,1545.719 757.281,1551.719 C758.281,1554.719 759.281,1558.719 760.281,1562.719 C761.281,1565.719 763.281,1569.719 764.281,1571.719 C765.281,1573.719 767.281,1575.719 767.281,1575.719 C767.281,1575.719 768.281,1577.719 770.281,1580.719 C771.281,1582.719 774.281,1587.719 775.281,1591.719 C780.281,1601.719 781.281,1603.719 782.281,1598.719 z M1573.281,1584.719 C1574.281,1583.719 1573.281,1583.719 1572.281,1583.719 C1569.281,1583.719 1568.281,1584.719 1569.281,1585.719 C1570.281,1586.719 1571.281,1586.719 1573.281,1584.719 z M1427.281,1540.719 C1426.281,1539.719 1425.281,1540.719 1426.281,1542.719 C1427.281,1542.719 1427.281,1542.719 1428.281,1541.719 C1428.281,1541.719 1428.281,1540.719 1427.281,1540.719 z M1609.281,1541.719 C1610.281,1540.719 1608.281,1538.719 1607.281,1538.719 C1606.281,1538.719 1606.281,1538.719 1606.281,1540.719 C1606.281,1541.719 1607.281,1542.719 1609.281,1541.719 z M1459.281,1538.719 C1459.281,1536.719 1459.281,1536.719 1458.281,1536.719 C1455.281,1536.719 1454.281,1537.719 1455.281,1539.719 C1456.281,1540.719 1457.281,1540.719 1459.281,1538.719 z M11.281,1525.719 C11.281,1521.719 9.281,1519.719 8.281,1522.719 C8.281,1525.719 9.281,1530.719 10.281,1529.719 C10.281,1529.719 11.281,1527.719 11.281,1525.719 z M153.281,1235.719 C153.281,1234.719 153.281,1233.719 153.281,1233.719 C152.281,1233.719 152.281,1233.719 152.281,1234.719 C152.281,1236.719 152.281,1236.719 153.281,1235.719 z M902.281,1192.719 C901.281,1183.719 898.281,1147.719 898.281,1144.719 C897.281,1139.719 895.281,1139.719 894.281,1144.719 C893.281,1148.719 890.281,1173.719 890.281,1186.719 L890.281,1193.719 L894.281,1194.719 C901.281,1196.719 902.281,1195.719 902.281,1192.719 z M867.281,1179.719 C868.281,1171.719 868.281,1165.719 868.281,1164.719 C867.281,1163.719 863.281,1169.719 862.281,1173.719 C862.281,1174.719 861.281,1176.719 860.281,1177.719 C859.281,1178.719 859.281,1179.719 861.281,1184.719 C862.281,1187.719 864.281,1190.719 864.281,1192.719 C865.281,1197.719 866.281,1194.719 867.281,1179.719 z M219.281,1179.719 C223.281,1179.719 229.281,1178.719 232.281,1178.719 C235.281,1178.719 241.281,1177.719 246.281,1176.719 C250.281,1175.719 255.281,1174.719 258.281,1173.719 C270.281,1171.719 298.281,1162.719 307.281,1157.719 C313.281,1153.719 328.281,1147.719 337.281,1145.719 C342.281,1144.719 346.281,1144.719 365.281,1144.719 C401.281,1146.719 397.281,1147.719 423.281,1133.719 C424.281,1132.719 430.281,1130.719 435.281,1128.719 C440.281,1126.719 446.281,1123.719 448.281,1122.719 C463.281,1115.719 475.281,1114.719 492.281,1117.719 C501.281,1119.719 504.281,1119.719 514.281,1119.719 C521.281,1118.719 526.281,1118.719 528.281,1116.719 C530.281,1115.719 532.281,1114.719 534.281,1114.719 C535.281,1114.719 538.281,1112.719 540.281,1110.719 C542.281,1108.719 548.281,1104.719 552.281,1101.719 C556.281,1098.719 564.281,1093.719 569.281,1090.719 L579.281,1084.719 L586.281,1085.719 C597.281,1087.719 597.281,1087.719 595.281,1084.719 C593.281,1082.719 593.281,1082.719 596.281,1082.719 C597.281,1082.719 599.281,1081.719 599.281,1080.719 C600.281,1079.719 601.281,1080.719 602.281,1082.719 C603.281,1085.719 603.281,1085.719 606.281,1083.719 C608.281,1081.719 608.281,1081.719 604.281,1078.719 L600.281,1075.719 L603.281,1073.719 C604.281,1072.719 606.281,1071.719 607.281,1071.719 C607.281,1071.719 608.281,1070.719 609.281,1067.719 C610.281,1064.719 609.281,1063.719 604.281,1051.719 C600.281,1044.719 597.281,1035.719 595.281,1029.719 C592.281,1018.719 587.281,1007.719 582.281,1003.719 L579.281,999.719 L577.281,1002.719 C576.281,1004.719 574.281,1003.719 570.281,1000.719 C568.281,997.719 565.281,988.719 565.281,984.719 C565.281,979.719 567.281,968.719 570.281,962.719 L573.281,956.719 L571.281,945.719 C570.281,939.719 569.281,932.719 568.281,929.719 L565.281,924.719 L563.281,927.719 C560.281,930.719 559.281,930.719 551.281,928.719 C546.281,927.719 544.281,927.719 544.281,927.719 C543.281,929.719 538.281,935.719 538.281,934.719 C538.281,934.719 537.281,932.719 537.281,931.719 C537.281,929.719 536.281,926.719 536.281,924.719 C535.281,921.719 535.281,919.719 535.281,918.719 C536.281,917.719 536.281,917.719 534.281,916.719 C533.281,916.719 531.281,916.719 531.281,917.719 C530.281,918.719 527.281,918.719 524.281,915.719 C522.281,913.719 519.281,905.719 519.281,901.719 C519.281,899.719 520.281,899.719 521.281,902.719 C523.281,905.719 527.281,904.719 528.281,901.719 C528.281,899.719 529.281,898.719 529.281,898.719 C530.281,898.719 531.281,898.719 531.281,898.719 C532.281,898.719 533.281,896.719 534.281,894.719 C535.281,890.719 535.281,890.719 533.281,888.719 C531.281,886.719 526.281,885.719 526.281,887.719 C526.281,889.719 524.281,887.719 523.281,884.719 C522.281,880.719 522.281,875.719 524.281,868.719 C525.281,864.719 526.281,862.719 527.281,865.719 C527.281,865.719 527.281,865.719 527.281,863.719 C527.281,862.719 527.281,861.719 527.281,861.719 C526.281,861.719 525.281,855.719 524.281,840.719 C524.281,836.719 523.281,832.719 523.281,832.719 C523.281,831.719 521.281,827.719 520.281,823.719 C518.281,814.719 518.281,814.719 516.281,815.719 C515.281,816.719 516.281,819.719 520.281,830.719 C521.281,832.719 521.281,836.719 521.281,839.719 L521.281,843.719 L520.281,839.719 C518.281,832.719 515.281,828.719 514.281,828.719 C513.281,828.719 512.281,826.719 512.281,824.719 C510.281,819.719 509.281,818.719 504.281,816.719 C499.281,815.719 497.281,815.719 498.281,817.719 C498.281,817.719 499.281,823.719 500.281,829.719 C500.281,836.719 501.281,842.719 501.281,843.719 C506.281,851.719 509.281,859.719 509.281,863.719 C509.281,867.719 508.281,868.719 506.281,871.719 C503.281,873.719 502.281,873.719 500.281,873.719 C499.281,873.719 498.281,873.719 496.281,874.719 C490.281,880.719 483.281,881.719 480.281,879.719 C478.281,877.719 477.281,877.719 471.281,877.719 C464.281,878.719 461.281,877.719 455.281,875.719 C451.281,873.719 450.281,874.719 449.281,879.719 C448.281,884.719 446.281,884.719 441.281,879.719 C438.281,875.719 433.281,873.719 430.281,876.719 C430.281,877.719 428.281,878.719 425.281,878.719 C421.281,878.719 421.281,878.719 422.281,881.719 C423.281,884.719 421.281,888.719 418.281,888.719 C416.281,888.719 401.281,907.719 400.281,910.719 C400.281,911.719 399.281,914.719 399.281,917.719 C398.281,922.719 398.281,924.719 393.281,930.719 C390.281,934.719 387.281,938.719 387.281,938.719 C387.281,939.719 387.281,940.719 386.281,941.719 C386.281,941.719 384.281,946.719 383.281,950.719 C381.281,958.719 379.281,960.719 371.281,969.719 C366.281,974.719 360.281,985.719 361.281,988.719 C361.281,988.719 360.281,990.719 360.281,990.719 C359.281,991.719 359.281,992.719 358.281,994.719 C358.281,995.719 357.281,997.719 351.281,1000.719 C347.281,1001.719 343.281,1004.719 341.281,1006.719 C336.281,1011.719 336.281,1012.719 332.281,1016.719 C327.281,1019.719 322.281,1023.719 314.281,1030.719 C311.281,1032.719 309.281,1034.719 309.281,1034.719 C307.281,1034.719 302.281,1037.719 298.281,1040.719 C295.281,1042.719 290.281,1044.719 287.281,1045.719 C284.281,1046.719 281.281,1048.719 279.281,1049.719 C277.281,1050.719 275.281,1051.719 273.281,1051.719 C271.281,1051.719 266.281,1053.719 262.281,1056.719 C258.281,1058.719 253.281,1060.719 252.281,1060.719 C251.281,1060.719 250.281,1060.719 250.281,1060.719 C250.281,1061.719 248.281,1062.719 247.281,1062.719 C245.281,1062.719 243.281,1064.719 242.281,1065.719 C241.281,1067.719 238.281,1070.719 235.281,1073.719 C230.281,1078.719 224.281,1086.719 224.281,1088.719 C224.281,1088.719 224.281,1089.719 223.281,1090.719 C222.281,1090.719 222.281,1091.719 222.281,1092.719 C222.281,1094.719 214.281,1106.719 212.281,1106.719 C211.281,1106.719 210.281,1108.719 209.281,1110.719 C208.281,1114.719 204.281,1122.719 203.281,1123.719 C202.281,1124.719 198.281,1130.719 194.281,1138.719 C191.281,1143.719 189.281,1148.719 188.281,1148.719 C186.281,1150.719 182.281,1159.719 182.281,1161.719 C182.281,1161.719 179.281,1165.719 177.281,1169.719 C173.281,1175.719 172.281,1178.719 173.281,1180.719 C174.281,1181.719 210.281,1181.719 219.281,1179.719 z M851.281,1155.719 C855.281,1151.719 856.281,1148.719 860.281,1134.719 C863.281,1127.719 865.281,1120.719 866.281,1118.719 C873.281,1101.719 876.281,1089.719 874.281,1087.719 C873.281,1087.719 873.281,1084.719 873.281,1080.719 C874.281,1074.719 874.281,1073.719 877.281,1070.719 C879.281,1068.719 880.281,1067.719 879.281,1066.719 C877.281,1064.719 877.281,1064.719 880.281,1064.719 C882.281,1064.719 885.281,1063.719 887.281,1062.719 C888.281,1062.719 892.281,1061.719 893.281,1061.719 C895.281,1061.719 897.281,1060.719 898.281,1060.719 C899.281,1059.719 909.281,1057.719 915.281,1056.719 C917.281,1056.719 920.281,1055.719 922.281,1053.719 C926.281,1050.719 932.281,1049.719 940.281,1049.719 C941.281,1049.719 944.281,1051.719 947.281,1054.719 C950.281,1056.719 953.281,1058.719 954.281,1058.719 C956.281,1058.719 959.281,1061.719 958.281,1063.719 C958.281,1063.719 956.281,1063.719 955.281,1063.719 C952.281,1063.719 952.281,1065.719 956.281,1067.719 C958.281,1068.719 960.281,1069.719 961.281,1069.719 C961.281,1070.719 966.281,1072.719 971.281,1074.719 C979.281,1078.719 986.281,1083.719 1002.281,1097.719 C1013.281,1107.719 1018.281,1112.719 1020.281,1111.719 C1020.281,1111.719 1019.281,1108.719 1015.281,1101.719 C1013.281,1099.719 1012.281,1096.719 1012.281,1095.719 C1009.281,1089.719 998.281,1074.719 981.281,1053.719 C973.281,1043.719 968.281,1035.719 969.281,1034.719 C969.281,1034.719 989.281,1043.719 990.281,1044.719 C991.281,1045.719 992.281,1046.719 992.281,1047.719 C993.281,1048.719 995.281,1049.719 996.281,1049.719 C997.281,1049.719 1000.281,1050.719 1003.281,1052.719 C1005.281,1053.719 1008.281,1055.719 1008.281,1055.719 C1009.281,1055.719 1032.281,1072.719 1037.281,1077.719 C1038.281,1078.719 1040.281,1079.719 1040.281,1079.719 C1042.281,1078.719 1027.281,1046.719 1020.281,1036.719 C1013.281,1026.719 1007.281,1020.719 1004.281,1020.719 C1002.281,1020.719 991.281,1014.719 983.281,1009.719 C980.281,1008.719 977.281,1004.719 975.281,1002.719 C972.281,996.719 970.281,995.719 966.281,999.719 C964.281,1000.719 962.281,1001.719 960.281,1000.719 C959.281,1000.719 957.281,1000.719 955.281,1001.719 C948.281,1006.719 947.281,1007.719 942.281,1011.719 C939.281,1014.719 934.281,1018.719 931.281,1020.719 C924.281,1025.719 922.281,1028.719 920.281,1033.719 C918.281,1039.719 914.281,1039.719 904.281,1033.719 C901.281,1031.719 893.281,1031.719 891.281,1034.719 C889.281,1035.719 887.281,1036.719 882.281,1035.719 C879.281,1035.719 872.281,1034.719 867.281,1034.719 L857.281,1033.719 L851.281,1039.719 C846.281,1044.719 838.281,1049.719 836.281,1048.719 C836.281,1048.719 834.281,1048.719 833.281,1049.719 C831.281,1050.719 828.281,1051.719 825.281,1051.719 C821.281,1051.719 817.281,1053.719 812.281,1056.719 C808.281,1059.719 803.281,1061.719 803.281,1061.719 C801.281,1061.719 801.281,1061.719 803.281,1063.719 C804.281,1065.719 804.281,1067.719 803.281,1071.719 C801.281,1078.719 801.281,1113.719 802.281,1120.719 C804.281,1125.719 807.281,1127.719 807.281,1123.719 C807.281,1122.719 807.281,1121.719 809.281,1121.719 C810.281,1121.719 812.281,1121.719 814.281,1119.719 C821.281,1115.719 834.281,1110.719 838.281,1110.719 L843.281,1110.719 L842.281,1130.719 C842.281,1142.719 843.281,1152.719 843.281,1153.719 C845.281,1158.719 848.281,1159.719 851.281,1155.719 z M761.281,1141.719 C761.281,1139.719 760.281,1139.719 759.281,1139.719 C757.281,1139.719 757.281,1139.719 758.281,1141.719 C759.281,1143.719 761.281,1143.719 761.281,1141.719 z M808.281,1132.719 C808.281,1132.719 808.281,1132.719 808.281,1133.719 C808.281,1134.719 808.281,1135.719 808.281,1134.719 C808.281,1134.719 808.281,1133.719 808.281,1132.719 z M1138.281,1128.719 C1139.281,1127.719 1139.281,1126.719 1139.281,1125.719 C1138.281,1124.719 1138.281,1121.719 1138.281,1119.719 C1139.281,1117.719 1138.281,1116.719 1137.281,1115.719 C1136.281,1114.719 1135.281,1112.719 1134.281,1110.719 C1134.281,1107.719 1134.281,1109.719 1134.281,1116.719 C1134.281,1122.719 1134.281,1127.719 1135.281,1127.719 C1135.281,1127.719 1136.281,1127.719 1136.281,1128.719 C1136.281,1130.719 1137.281,1130.719 1138.281,1128.719 z M776.281,1125.719 C778.281,1123.719 778.281,1123.719 776.281,1122.719 C773.281,1120.719 772.281,1121.719 772.281,1124.719 C771.281,1128.719 773.281,1129.719 776.281,1125.719 z M730.281,1103.719 C730.281,1101.719 729.281,1094.719 729.281,1088.719 C729.281,1082.719 728.281,1077.719 728.281,1077.719 C726.281,1077.719 722.281,1084.719 722.281,1086.719 C722.281,1086.719 723.281,1090.719 724.281,1093.719 C725.281,1096.719 727.281,1100.719 727.281,1102.719 C729.281,1108.719 731.281,1108.719 730.281,1103.719 z M1136.281,1102.719 C1136.281,1102.719 1135.281,1102.719 1135.281,1102.719 C1134.281,1102.719 1134.281,1102.719 1134.281,1103.719 C1134.281,1104.719 1134.281,1104.719 1135.281,1104.719 C1135.281,1104.719 1136.281,1103.719 1136.281,1102.719 z M1067.281,1038.719 C1067.281,1037.719 1066.281,1034.719 1065.281,1030.719 C1064.281,1027.719 1064.281,1024.719 1064.281,1024.719 C1064.281,1023.719 1064.281,1023.719 1064.281,1022.719 C1063.281,1021.719 1062.281,1017.719 1060.281,1012.719 C1057.281,999.719 1057.281,998.719 1050.281,1002.719 C1047.281,1004.719 1044.281,1006.719 1042.281,1006.719 C1036.281,1007.719 1036.281,1008.719 1050.281,1023.719 C1057.281,1031.719 1063.281,1038.719 1064.281,1039.719 C1065.281,1041.719 1067.281,1041.719 1067.281,1038.719 z M746.281,1021.719 C746.281,1020.719 746.281,1020.719 746.281,1022.719 C746.281,1024.719 746.281,1024.719 746.281,1024.719 C746.281,1023.719 746.281,1022.719 746.281,1021.719 z M887.281,1022.719 C887.281,1021.719 890.281,1020.719 892.281,1019.719 C896.281,1017.719 901.281,1013.719 914.281,1004.719 C923.281,997.719 935.281,990.719 936.281,990.719 C938.281,990.719 936.281,986.719 933.281,984.719 C932.281,982.719 931.281,981.719 931.281,980.719 C931.281,980.719 935.281,980.719 939.281,980.719 C944.281,981.719 946.281,980.719 946.281,980.719 C946.281,978.719 940.281,970.719 938.281,970.719 C938.281,970.719 935.281,972.719 932.281,975.719 C928.281,979.719 924.281,983.719 922.281,984.719 C920.281,986.719 916.281,988.719 914.281,990.719 L911.281,994.719 L913.281,996.719 C915.281,1000.719 914.281,1002.719 909.281,1005.719 C904.281,1008.719 897.281,1013.719 894.281,1015.719 C893.281,1016.719 892.281,1017.719 892.281,1017.719 C891.281,1017.719 889.281,1018.719 886.281,1019.719 C883.281,1020.719 880.281,1022.719 879.281,1022.719 C876.281,1023.719 876.281,1023.719 881.281,1023.719 C883.281,1023.719 886.281,1023.719 887.281,1022.719 z M250.281,975.719 C250.281,974.719 250.281,975.719 250.281,977.719 C250.281,978.719 250.281,979.719 250.281,978.719 C250.281,977.719 250.281,976.719 250.281,975.719 z M221.281,951.719 C221.281,949.719 220.281,948.719 219.281,947.719 C219.281,947.719 219.281,948.719 220.281,950.719 C221.281,954.719 222.281,955.719 221.281,951.719 z M1068.281,933.719 C1069.281,930.719 1069.281,929.719 1068.281,924.719 C1068.281,921.719 1066.281,917.719 1065.281,914.719 C1064.281,911.719 1063.281,908.719 1063.281,907.719 C1063.281,904.719 1050.281,884.719 1045.281,881.719 C1044.281,880.719 1044.281,878.719 1044.281,876.719 C1045.281,871.719 1044.281,868.719 1041.281,867.719 C1039.281,867.719 1039.281,866.719 1041.281,865.719 C1043.281,864.719 1043.281,864.719 1040.281,862.719 C1039.281,860.719 1037.281,858.719 1037.281,856.719 C1035.281,853.719 1037.281,843.719 1040.281,835.719 C1042.281,830.719 1043.281,826.719 1043.281,822.719 C1043.281,819.719 1043.281,813.719 1043.281,810.719 C1044.281,804.719 1050.281,791.719 1053.281,789.719 C1054.281,788.719 1055.281,787.719 1055.281,786.719 C1055.281,785.719 1061.281,775.719 1067.281,770.719 C1071.281,765.719 1072.281,764.719 1071.281,761.719 C1070.281,758.719 1071.281,758.719 1073.281,757.719 C1076.281,757.719 1077.281,756.719 1077.281,753.719 C1079.281,744.719 1080.281,741.719 1081.281,741.719 C1081.281,741.719 1082.281,741.719 1081.281,739.719 C1081.281,737.719 1081.281,735.719 1081.281,733.719 C1081.281,731.719 1082.281,730.719 1083.281,731.719 C1084.281,732.719 1085.281,734.719 1085.281,735.719 C1086.281,738.719 1089.281,737.719 1089.281,735.719 C1089.281,730.719 1093.281,738.719 1094.281,744.719 C1094.281,746.719 1094.281,746.719 1095.281,744.719 C1096.281,742.719 1097.281,738.719 1097.281,733.719 C1097.281,725.719 1097.281,724.719 1099.281,724.719 C1101.281,725.719 1101.281,724.719 1100.281,721.719 C1100.281,718.719 1098.281,711.719 1096.281,705.719 C1091.281,692.719 1090.281,687.719 1090.281,685.719 C1091.281,684.719 1091.281,682.719 1092.281,681.719 C1092.281,679.719 1094.281,672.719 1095.281,666.719 C1098.281,654.719 1098.281,654.719 1098.281,626.719 C1098.281,592.719 1098.281,593.719 1101.281,590.719 L1104.281,588.719 L1101.281,587.719 C1099.281,586.719 1097.281,586.719 1097.281,585.719 C1096.281,585.719 1095.281,584.719 1094.281,585.719 C1094.281,585.719 1092.281,584.719 1092.281,583.719 C1091.281,582.719 1087.281,580.719 1084.281,578.719 C1080.281,575.719 1075.281,572.719 1073.281,570.719 C1071.281,568.719 1069.281,567.719 1068.281,567.719 C1068.281,566.719 1066.281,564.719 1065.281,562.719 C1063.281,559.719 1060.281,555.719 1058.281,553.719 C1056.281,550.719 1054.281,547.719 1054.281,544.719 C1053.281,541.719 1051.281,537.719 1050.281,534.719 C1049.281,531.719 1047.281,528.719 1047.281,526.719 L1045.281,523.719 L1043.281,526.719 C1042.281,527.719 1039.281,530.719 1037.281,531.719 C1022.281,541.719 1020.281,543.719 1020.281,545.719 C1019.281,547.719 1026.281,553.719 1032.281,556.719 C1034.281,557.719 1036.281,558.719 1037.281,560.719 C1037.281,561.719 1039.281,564.719 1041.281,566.719 C1043.281,568.719 1045.281,570.719 1045.281,572.719 C1045.281,574.719 1039.281,577.719 1035.281,577.719 C1033.281,577.719 1031.281,578.719 1031.281,579.719 C1031.281,579.719 1029.281,580.719 1028.281,580.719 C1027.281,580.719 1025.281,580.719 1024.281,581.719 C1022.281,584.719 1013.281,584.719 1003.281,583.719 C996.281,582.719 994.281,583.719 990.281,586.719 C989.281,587.719 985.281,590.719 982.281,591.719 C979.281,593.719 976.281,595.719 976.281,595.719 C975.281,597.719 980.281,597.719 982.281,595.719 C983.281,594.719 984.281,594.719 989.281,595.719 C992.281,596.719 998.281,597.719 1003.281,597.719 C1007.281,597.719 1012.281,597.719 1012.281,598.719 C1013.281,598.719 1016.281,599.719 1021.281,600.719 C1027.281,601.719 1028.281,601.719 1033.281,606.719 C1036.281,608.719 1038.281,611.719 1039.281,611.719 C1039.281,611.719 1040.281,612.719 1041.281,614.719 C1041.281,616.719 1042.281,619.719 1043.281,619.719 C1043.281,620.719 1043.281,621.719 1043.281,622.719 C1042.281,623.719 1042.281,628.719 1042.281,633.719 C1042.281,639.719 1042.281,642.719 1041.281,642.719 C1040.281,642.719 1038.281,644.719 1037.281,645.719 C1034.281,647.719 1034.281,647.719 1033.281,646.719 C1031.281,645.719 1028.281,647.719 1025.281,653.719 C1024.281,656.719 1022.281,658.719 1021.281,659.719 C1020.281,660.719 1017.281,661.719 1015.281,663.719 C1013.281,664.719 1011.281,666.719 1011.281,666.719 C1010.281,666.719 1003.281,672.719 1003.281,673.719 C1003.281,674.719 1000.281,675.719 998.281,677.719 L994.281,679.719 L991.281,677.719 C989.281,675.719 989.281,674.719 989.281,669.719 C989.281,665.719 989.281,662.719 988.281,661.719 C985.281,658.719 991.281,649.719 995.281,650.719 C997.281,651.719 997.281,651.719 995.281,649.719 C994.281,647.719 993.281,645.719 993.281,643.719 C994.281,637.719 994.281,631.719 992.281,630.719 C992.281,629.719 991.281,629.719 991.281,630.719 C990.281,631.719 989.281,630.719 988.281,627.719 C987.281,624.719 985.281,621.719 984.281,621.719 C983.281,620.719 979.281,619.719 974.281,619.719 C967.281,619.719 967.281,619.719 967.281,620.719 C967.281,621.719 967.281,623.719 968.281,624.719 C969.281,624.719 970.281,625.719 970.281,626.719 C970.281,627.719 970.281,627.719 971.281,627.719 C972.281,626.719 973.281,626.719 975.281,629.719 C978.281,632.719 978.281,634.719 975.281,632.719 C972.281,631.719 971.281,633.719 973.281,635.719 C974.281,636.719 975.281,638.719 975.281,638.719 C975.281,640.719 972.281,640.719 971.281,638.719 C970.281,638.719 970.281,638.719 970.281,641.719 C971.281,649.719 970.281,652.719 961.281,661.719 C957.281,667.719 952.281,671.719 950.281,672.719 C945.281,674.719 932.281,674.719 927.281,672.719 C923.281,669.719 918.281,665.719 918.281,664.719 C918.281,663.719 911.281,657.719 910.281,657.719 C908.281,657.719 898.281,668.719 897.281,670.719 C897.281,672.719 897.281,673.719 897.281,674.719 C898.281,674.719 899.281,676.719 899.281,677.719 C899.281,679.719 902.281,681.719 907.281,681.719 C910.281,681.719 915.281,681.719 918.281,682.719 C927.281,684.719 928.281,684.719 929.281,681.719 C929.281,678.719 929.281,678.719 931.281,682.719 C933.281,685.719 934.281,686.719 940.281,688.719 C947.281,691.719 949.281,692.719 951.281,699.719 L954.281,704.719 L951.281,707.719 C948.281,709.719 948.281,709.719 939.281,709.719 C932.281,709.719 930.281,710.719 929.281,712.719 C926.281,714.719 926.281,714.719 929.281,720.719 C933.281,728.719 932.281,730.719 925.281,731.719 C923.281,731.719 921.281,732.719 920.281,732.719 C920.281,733.719 918.281,734.719 917.281,734.719 C916.281,734.719 913.281,736.719 909.281,739.719 L903.281,744.719 L903.281,748.719 C903.281,750.719 904.281,753.719 905.281,755.719 C906.281,757.719 906.281,761.719 906.281,773.719 C906.281,782.719 906.281,790.719 906.281,794.719 C907.281,797.719 908.281,805.719 909.281,811.719 C910.281,820.719 914.281,836.719 915.281,839.719 C916.281,840.719 917.281,842.719 917.281,844.719 C918.281,847.719 919.281,849.719 920.281,849.719 C921.281,849.719 923.281,848.719 926.281,846.719 C931.281,841.719 933.281,840.719 939.281,844.719 C941.281,846.719 942.281,847.719 943.281,849.719 C943.281,851.719 944.281,852.719 945.281,853.719 C954.281,858.719 969.281,871.719 970.281,875.719 C970.281,877.719 971.281,880.719 972.281,882.719 C974.281,885.719 974.281,886.719 978.281,885.719 C981.281,885.719 983.281,885.719 985.281,888.719 L989.281,891.719 L986.281,893.719 C984.281,895.719 983.281,896.719 983.281,897.719 C983.281,898.719 982.281,899.719 980.281,900.719 C977.281,903.719 976.281,905.719 979.281,907.719 C983.281,908.719 992.281,915.719 994.281,917.719 C995.281,920.719 998.281,918.719 1001.281,914.719 C1003.281,910.719 1004.281,908.719 1004.281,907.719 C1003.281,905.719 1005.281,902.719 1008.281,902.719 C1008.281,902.719 1010.281,900.719 1013.281,897.719 L1017.281,892.719 L1019.281,894.719 C1024.281,899.719 1033.281,904.719 1034.281,903.719 C1035.281,901.719 1041.281,907.719 1042.281,912.719 C1042.281,912.719 1042.281,913.719 1043.281,913.719 C1043.281,913.719 1043.281,914.719 1043.281,914.719 C1044.281,919.719 1046.281,924.719 1047.281,924.719 C1047.281,924.719 1047.281,922.719 1047.281,921.719 C1046.281,917.719 1048.281,918.719 1049.281,922.719 C1050.281,925.719 1052.281,927.719 1053.281,928.719 C1055.281,929.719 1055.281,930.719 1054.281,930.719 C1052.281,931.719 1052.281,931.719 1054.281,932.719 C1055.281,932.719 1055.281,933.719 1055.281,934.719 C1054.281,934.719 1056.281,935.719 1059.281,935.719 C1060.281,935.719 1061.281,935.719 1062.281,936.719 C1063.281,939.719 1066.281,937.719 1068.281,933.719 z M971.281,936.719 C971.281,934.719 965.281,931.719 962.281,930.719 C960.281,929.719 960.281,930.719 961.281,932.719 C962.281,934.719 963.281,935.719 964.281,936.719 C967.281,937.719 971.281,937.719 971.281,936.719 z M1054.281,935.719 C1054.281,935.719 1053.281,935.719 1052.281,935.719 C1051.281,935.719 1051.281,935.719 1051.281,935.719 C1051.281,936.719 1051.281,936.719 1052.281,936.719 C1053.281,936.719 1054.281,935.719 1054.281,935.719 z M933.281,903.719 C935.281,902.719 937.281,901.719 938.281,901.719 C938.281,901.719 942.281,899.719 946.281,896.719 C950.281,894.719 953.281,892.719 953.281,890.719 C953.281,888.719 947.281,877.719 946.281,877.719 C945.281,877.719 944.281,878.719 944.281,879.719 C943.281,880.719 942.281,882.719 941.281,882.719 C940.281,882.719 934.281,893.719 933.281,896.719 C933.281,897.719 931.281,899.719 930.281,900.719 C927.281,901.719 926.281,902.719 927.281,904.719 C928.281,906.719 929.281,906.719 933.281,903.719 z M229.281,890.719 C230.281,890.719 230.281,887.719 230.281,885.719 C229.281,881.719 228.281,881.719 227.281,885.719 C227.281,886.719 227.281,886.719 227.281,886.719 C228.281,886.719 229.281,886.719 229.281,887.719 C229.281,888.719 229.281,888.719 228.281,888.719 C227.281,888.719 227.281,888.719 227.281,889.719 C227.281,892.719 228.281,892.719 229.281,890.719 z M595.281,887.719 C595.281,886.719 594.281,886.719 594.281,886.719 C594.281,886.719 593.281,886.719 593.281,887.719 C593.281,887.719 593.281,888.719 593.281,888.719 C594.281,888.719 595.281,887.719 595.281,887.719 z M915.281,880.719 L918.281,877.719 L915.281,875.719 C914.281,874.719 913.281,875.719 912.281,876.719 C910.281,879.719 910.281,883.719 913.281,883.719 C913.281,883.719 914.281,881.719 915.281,880.719 z M587.281,876.719 C587.281,876.719 586.281,875.719 586.281,875.719 C585.281,875.719 585.281,875.719 585.281,875.719 C585.281,876.719 585.281,877.719 586.281,877.719 C586.281,877.719 587.281,876.719 587.281,876.719 z M481.281,872.719 C481.281,872.719 480.281,872.719 480.281,872.719 C479.281,872.719 479.281,872.719 479.281,873.719 C479.281,874.719 479.281,874.719 480.281,874.719 C480.281,874.719 481.281,873.719 481.281,872.719 z M224.281,857.719 C224.281,854.719 222.281,852.719 221.281,852.719 C221.281,852.719 221.281,853.719 221.281,855.719 C221.281,857.719 221.281,859.719 222.281,859.719 C223.281,859.719 224.281,858.719 224.281,857.719 z M531.281,832.719 C531.281,831.719 530.281,831.719 530.281,831.719 C530.281,831.719 529.281,831.719 529.281,832.719 C529.281,832.719 529.281,833.719 529.281,833.719 C530.281,833.719 531.281,832.719 531.281,832.719 z M412.281,830.719 C412.281,829.719 411.281,828.719 410.281,827.719 C408.281,826.719 408.281,826.719 408.281,828.719 C408.281,831.719 408.281,831.719 410.281,831.719 C411.281,831.719 412.281,831.719 412.281,830.719 z M528.281,826.719 C528.281,825.719 528.281,824.719 528.281,822.719 C528.281,820.719 524.281,812.719 522.281,812.719 C521.281,812.719 521.281,815.719 523.281,819.719 C525.281,821.719 526.281,824.719 526.281,826.719 C526.281,827.719 527.281,829.719 527.281,830.719 C528.281,831.719 530.281,828.719 528.281,826.719 z M241.281,824.719 C241.281,822.719 241.281,820.719 241.281,820.719 C240.281,820.719 240.281,819.719 240.281,817.719 C239.281,814.719 238.281,813.719 236.281,814.719 L233.281,814.719 L235.281,818.719 C237.281,820.719 238.281,823.719 238.281,824.719 C238.281,826.719 238.281,828.719 240.281,828.719 C240.281,828.719 240.281,826.719 241.281,824.719 z M537.281,821.719 C536.281,820.719 534.281,816.719 533.281,813.719 C531.281,811.719 530.281,808.719 529.281,808.719 C529.281,809.719 528.281,808.719 527.281,806.719 C526.281,804.719 524.281,803.719 522.281,805.719 C521.281,806.719 521.281,807.719 521.281,808.719 C522.281,810.719 524.281,810.719 524.281,808.719 C524.281,807.719 524.281,807.719 525.281,807.719 C525.281,807.719 526.281,807.719 526.281,808.719 C526.281,809.719 526.281,810.719 527.281,811.719 C528.281,811.719 529.281,813.719 530.281,815.719 C536.281,826.719 537.281,827.719 538.281,826.719 C539.281,825.719 539.281,824.719 537.281,821.719 z M290.281,789.719 C288.281,787.719 286.281,786.719 285.281,786.719 C284.281,786.719 286.281,787.719 288.281,789.719 C291.281,792.719 293.281,793.719 293.281,793.719 C294.281,793.719 292.281,791.719 290.281,789.719 z M484.281,786.719 C484.281,784.719 480.281,781.719 478.281,781.719 C475.281,781.719 473.281,783.719 474.281,785.719 C475.281,786.719 476.281,785.719 477.281,784.719 C479.281,782.719 479.281,782.719 480.281,784.719 C482.281,787.719 484.281,787.719 484.281,786.719 z M580.281,782.719 C580.281,781.719 577.281,777.719 576.281,777.719 C575.281,778.719 577.281,783.719 578.281,783.719 C579.281,783.719 580.281,782.719 580.281,782.719 z M1171.281,735.719 C1171.281,732.719 1170.281,732.719 1167.281,734.719 C1165.281,735.719 1165.281,735.719 1166.281,736.719 C1168.281,738.719 1171.281,738.719 1171.281,735.719 z M403.281,703.719 C403.281,702.719 402.281,702.719 401.281,702.719 C400.281,702.719 400.281,702.719 400.281,703.719 C400.281,703.719 401.281,704.719 402.281,704.719 C402.281,704.719 403.281,703.719 403.281,703.719 z M405.281,681.719 C402.281,676.719 399.281,673.719 399.281,673.719 C399.281,673.719 399.281,674.719 399.281,676.719 C399.281,679.719 399.281,681.719 401.281,682.719 C402.281,683.719 403.281,683.719 403.281,683.719 C403.281,682.719 403.281,683.719 403.281,683.719 C404.281,684.719 410.281,688.719 411.281,688.719 C411.281,688.719 409.281,685.719 405.281,681.719 z M401.281,685.719 C401.281,684.719 400.281,684.719 399.281,684.719 C399.281,684.719 399.281,684.719 399.281,685.719 C399.281,685.719 400.281,686.719 400.281,686.719 C400.281,686.719 401.281,685.719 401.281,685.719 z M284.281,682.719 C285.281,680.719 282.281,679.719 279.281,680.719 C276.281,680.719 276.281,680.719 278.281,681.719 C280.281,683.719 283.281,683.719 284.281,682.719 z M593.281,618.719 C596.281,618.719 603.281,617.719 610.281,616.719 C621.281,615.719 639.281,612.719 650.281,610.719 C653.281,609.719 662.281,608.719 669.281,607.719 C681.281,605.719 689.281,604.719 701.281,600.719 C705.281,599.719 711.281,598.719 716.281,597.719 C724.281,595.719 730.281,593.719 746.281,587.719 C752.281,585.719 762.281,581.719 769.281,578.719 C776.281,575.719 782.281,573.719 783.281,572.719 C783.281,572.719 785.281,572.719 785.281,572.719 C786.281,572.719 793.281,569.719 800.281,565.719 C807.281,561.719 813.281,559.719 814.281,559.719 C815.281,559.719 818.281,557.719 821.281,555.719 C824.281,553.719 828.281,551.719 830.281,550.719 C837.281,547.719 843.281,544.719 849.281,539.719 C853.281,536.719 856.281,533.719 857.281,533.719 C858.281,533.719 861.281,531.719 864.281,528.719 C875.281,518.719 886.281,511.719 893.281,509.719 C897.281,508.719 908.281,500.719 916.281,493.719 C919.281,490.719 926.281,484.719 930.281,480.719 C934.281,477.719 941.281,472.719 945.281,469.719 C948.281,465.719 955.281,459.719 960.281,455.719 C965.281,451.719 972.281,445.719 975.281,442.719 C983.281,435.719 1004.281,409.719 1014.281,394.719 C1016.281,392.719 1019.281,386.719 1023.281,382.719 C1026.281,378.719 1029.281,373.719 1029.281,371.719 C1029.281,370.719 1031.281,366.719 1034.281,362.719 C1036.281,359.719 1039.281,354.719 1040.281,353.719 C1041.281,351.719 1044.281,347.719 1046.281,344.719 C1052.281,336.719 1052.281,335.719 1049.281,335.719 C1047.281,335.719 1045.281,338.719 1035.281,353.719 C1022.281,374.719 1014.281,387.719 1005.281,397.719 C1001.281,402.719 998.281,405.719 998.281,406.719 C997.281,406.719 993.281,411.719 988.281,417.719 C977.281,429.719 956.281,450.719 945.281,458.719 C935.281,466.719 912.281,483.719 904.281,489.719 C900.281,492.719 893.281,496.719 889.281,499.719 C883.281,504.719 865.281,515.719 855.281,522.719 C854.281,522.719 847.281,526.719 840.281,530.719 C822.281,541.719 820.281,542.719 810.281,547.719 C789.281,557.719 761.281,569.719 754.281,571.719 C752.281,571.719 748.281,573.719 745.281,574.719 C737.281,578.719 713.281,585.719 707.281,586.719 C704.281,587.719 698.281,588.719 695.281,589.719 C692.281,590.719 686.281,592.719 682.281,592.719 C668.281,595.719 649.281,599.719 645.281,600.719 C632.281,603.719 621.281,605.719 612.281,606.719 C606.281,606.719 597.281,607.719 593.281,607.719 C582.281,609.719 561.281,609.719 556.281,607.719 C546.281,605.719 537.281,603.719 532.281,604.719 C526.281,604.719 520.281,604.719 521.281,602.719 C522.281,601.719 519.281,596.719 518.281,595.719 C517.281,595.719 516.281,595.719 515.281,595.719 C512.281,594.719 501.281,590.719 490.281,584.719 C478.281,579.719 478.281,578.719 472.281,573.719 C469.281,570.719 465.281,567.719 463.281,566.719 C460.281,563.719 450.281,560.719 449.281,561.719 C448.281,562.719 455.281,575.719 460.281,581.719 C461.281,582.719 462.281,584.719 463.281,585.719 C464.281,586.719 465.281,587.719 467.281,587.719 C470.281,588.719 471.281,590.719 468.281,591.719 C466.281,592.719 472.281,594.719 476.281,594.719 C480.281,594.719 494.281,598.719 504.281,602.719 C508.281,604.719 513.281,606.719 516.281,606.719 C519.281,607.719 523.281,608.719 525.281,610.719 C530.281,612.719 545.281,616.719 556.281,618.719 C563.281,619.719 580.281,619.719 593.281,618.719 z M590.281,534.719 C599.281,534.719 603.281,534.719 603.281,534.719 C604.281,535.719 604.281,535.719 605.281,535.719 C607.281,535.719 607.281,535.719 606.281,535.719 C605.281,534.719 608.281,533.719 612.281,533.719 C616.281,532.719 624.281,530.719 630.281,528.719 C635.281,526.719 643.281,524.719 647.281,523.719 C664.281,518.719 669.281,516.719 677.281,512.719 C688.281,506.719 696.281,504.719 697.281,505.719 C698.281,506.719 698.281,506.719 699.281,505.719 C699.281,504.719 700.281,504.719 701.281,504.719 C704.281,504.719 715.281,498.719 717.281,495.719 C719.281,494.719 719.281,493.719 719.281,493.719 C719.281,493.719 715.281,494.719 710.281,496.719 C705.281,498.719 701.281,500.719 700.281,500.719 C699.281,500.719 695.281,501.719 691.281,502.719 C679.281,506.719 674.281,507.719 665.281,509.719 C659.281,510.719 650.281,512.719 644.281,514.719 C635.281,516.719 628.281,518.719 618.281,518.719 C611.281,519.719 603.281,520.719 600.281,521.719 C593.281,523.719 581.281,525.719 560.281,525.719 C549.281,525.719 539.281,526.719 539.281,526.719 C538.281,527.719 546.281,532.719 555.281,535.719 C558.281,536.719 566.281,536.719 590.281,534.719 z M460.281,516.719 C460.281,515.719 454.281,508.719 452.281,508.719 C451.281,508.719 451.281,509.719 455.281,513.719 C459.281,518.719 461.281,519.719 460.281,516.719 z M490.281,515.719 C489.281,514.719 485.281,512.719 481.281,510.719 C478.281,508.719 471.281,503.719 467.281,499.719 C458.281,491.719 457.281,491.719 456.281,497.719 C456.281,499.719 456.281,500.719 460.281,504.719 C462.281,507.719 465.281,510.719 465.281,510.719 C465.281,511.719 465.281,512.719 467.281,514.719 C469.281,516.719 469.281,516.719 480.281,516.719 C490.281,516.719 492.281,516.719 490.281,515.719 z M819.281,447.719 C820.281,446.719 819.281,446.719 818.281,446.719 C816.281,446.719 812.281,448.719 812.281,449.719 C812.281,450.719 818.281,448.719 819.281,447.719 z M401.281,396.719 C401.281,395.719 401.281,395.719 400.281,395.719 C399.281,395.719 399.281,395.719 399.281,396.719 C399.281,396.719 400.281,397.719 400.281,397.719 C400.281,397.719 401.281,396.719 401.281,396.719 z M400.281,390.719 C400.281,388.719 399.281,386.719 398.281,387.719 C397.281,387.719 398.281,391.719 400.281,391.719 C400.281,391.719 400.281,390.719 400.281,390.719 z M260.281,151.719 C261.281,149.719 262.281,146.719 261.281,146.719 C259.281,146.719 257.281,149.719 257.281,151.719 C257.281,153.719 257.281,153.719 260.281,151.719 z M80.281,1332.719 C81.281,1331.719 87.281,1328.719 87.281,1329.719 C87.281,1330.719 85.281,1331.719 80.281,1333.719 C80.281,1334.719 80.281,1333.719 80.281,1332.719 z M58.281,1326.719 C58.281,1326.719 60.281,1325.719 61.281,1325.719 C66.281,1325.719 65.281,1327.719 61.281,1327.719 C59.281,1327.719 58.281,1327.719 58.281,1326.719 z M1139.281,1216.719 C1139.281,1215.719 1139.281,1215.719 1140.281,1215.719 C1140.281,1215.719 1141.281,1215.719 1141.281,1216.719 C1141.281,1216.719 1140.281,1217.719 1140.281,1217.719 C1139.281,1217.719 1139.281,1216.719 1139.281,1216.719 z M1133.281,1158.719 C1133.281,1155.719 1133.281,1155.719 1134.281,1157.719 C1135.281,1158.719 1135.281,1159.719 1135.281,1159.719 C1134.281,1161.719 1133.281,1161.719 1133.281,1158.719 z M625.281,907.719 C625.281,905.719 625.281,904.719 626.281,905.719 C627.281,906.719 627.281,907.719 626.281,908.719 C625.281,909.719 625.281,908.719 625.281,907.719 z M464.281,846.719 C463.281,845.719 463.281,844.719 463.281,844.719 C463.281,844.719 466.281,843.719 470.281,843.719 C474.281,843.719 478.281,842.719 480.281,841.719 C482.281,840.719 483.281,840.719 484.281,842.719 C484.281,843.719 482.281,845.719 480.281,845.719 C475.281,846.719 472.281,847.719 472.281,848.719 C472.281,849.719 466.281,848.719 464.281,846.719 z M338.281,795.719 C336.281,791.719 337.281,790.719 339.281,792.719 C342.281,795.719 342.281,798.719 341.281,798.719 C340.281,798.719 339.281,796.719 338.281,795.719 z M1200.281,728.719 C1200.281,726.719 1203.281,726.719 1203.281,728.719 C1203.281,729.719 1202.281,730.719 1201.281,730.719 C1200.281,730.719 1200.281,729.719 1200.281,728.719 z M203.281,666.719 C201.281,664.719 202.281,664.719 206.281,666.719 C208.281,666.719 208.281,667.719 208.281,667.719 C207.281,669.719 205.281,668.719 203.281,666.719 z M196.281,659.719 C195.281,658.719 195.281,658.719 195.281,658.719 C197.281,658.719 198.281,659.719 197.281,660.719 C197.281,660.719 196.281,660.719 196.281,659.719 z M328.281,639.719 C325.281,638.719 325.281,637.719 325.281,634.719 C325.281,631.719 325.281,629.719 325.281,629.719 C326.281,629.719 329.281,629.719 332.281,630.719 C336.281,631.719 336.281,632.719 335.281,632.719 C332.281,633.719 332.281,634.719 334.281,635.719 C336.281,636.719 336.281,638.719 334.281,639.719 C332.281,640.719 331.281,640.719 328.281,639.719 z M343.281,635.719 C343.281,634.719 343.281,634.719 344.281,634.719 C345.281,634.719 345.281,634.719 345.281,635.719 C345.281,635.719 344.281,636.719 344.281,636.719 C344.281,636.719 343.281,635.719 343.281,635.719 z M288.281,624.719 C288.281,623.719 288.281,623.719 289.281,623.719 C291.281,624.719 291.281,625.719 290.281,625.719 C289.281,625.719 288.281,624.719 288.281,624.719 z M274.281,623.719 C276.281,622.719 283.281,622.719 284.281,623.719 C285.281,623.719 282.281,623.719 279.281,623.719 C275.281,623.719 273.281,623.719 274.281,623.719 z M414.281,477.719 C413.281,475.719 413.281,473.719 413.281,473.719 C413.281,472.719 412.281,470.719 410.281,468.719 C409.281,465.719 409.281,463.719 409.281,463.719 C410.281,462.719 414.281,467.719 415.281,470.719 C415.281,471.719 416.281,473.719 417.281,473.719 C417.281,473.719 417.281,479.719 416.281,480.719 C416.281,481.719 415.281,479.719 414.281,477.719 z M987.281,864.719 C986.281,862.719 985.281,861.719 986.281,861.719 C987.281,860.719 988.281,860.719 989.281,861.719 C992.281,864.719 990.281,866.719 987.281,864.719 z" fill="#383838"/>
  </g>
</svg>
